<svg width="25" height="25" viewBox="0 0 25 25" fill="none" xmlns="http://www.w3.org/2000/svg">
<g clip-path="url(#clip0_757_124)">
<path d="M16.6666 20.1389L20.1388 16.6667L4.16656 0.694443H0.694336V4.16667L16.6666 20.1389Z" fill="#CCD6DD"/>
<path d="M0.694336 0.694443V4.16667L16.6666 20.1389L18.4027 18.4028L0.694336 0.694443Z" fill="#9AAAB4"/>
<path d="M23.2108 22.7833C23.408 22.5861 23.5289 22.3486 23.5796 22.1111L19.9393 17.809L19.4525 17.3215C19.0608 16.9299 18.3622 16.9931 17.8914 17.4639L17.465 17.8889C16.9948 18.359 16.9316 19.0576 17.3233 19.4493L17.8379 19.9639L22.1087 23.5785C22.3483 23.5285 22.5865 23.4069 22.7851 23.209L23.2108 22.7833Z" fill="#D99E82"/>
<path d="M23.2109 22.7833C23.4081 22.5861 23.5289 22.3486 23.5796 22.1111L22.6477 21.0097L22.1359 23.5681C22.3657 23.5146 22.5949 23.3993 22.7852 23.2083L23.2109 22.7833ZM20.9123 18.9597L20.2956 22.0437L21.1706 22.784L21.74 19.9368L20.9123 18.9597ZM19.9394 17.809L19.4525 17.3215C19.3862 17.2575 19.3097 17.2049 19.2262 17.166L18.547 20.5632L19.422 21.3035L20.0866 17.9819L19.9394 17.809ZM18.272 17.1924C18.1308 17.2612 18.0022 17.3532 17.8914 17.4646L17.465 17.8889C17.2976 18.0543 17.1754 18.26 17.1102 18.4861C17.0116 18.8403 17.0782 19.2049 17.3234 19.4493L17.7373 19.8632L18.272 17.1924C18.272 17.1917 18.272 17.1917 18.272 17.1924Z" fill="#BF6952"/>
<path d="M23.0904 25C24.1451 25 25.0001 24.145 25.0001 23.0903C25.0001 22.0356 24.1451 21.1806 23.0904 21.1806C22.0357 21.1806 21.1807 22.0356 21.1807 23.0903C21.1807 24.145 22.0357 25 23.0904 25Z" fill="#8A4633"/>
<path d="M20.5733 15.5028C20.64 15.5694 20.693 15.6485 20.7291 15.7356C20.7652 15.8227 20.7838 15.9161 20.7838 16.0104C20.7838 16.1047 20.7652 16.1981 20.7291 16.2852C20.693 16.3723 20.64 16.4514 20.5733 16.5181L16.3427 20.7486C16.2761 20.8153 16.1969 20.8682 16.1098 20.9042C16.0227 20.9403 15.9294 20.9589 15.8351 20.9589C15.7408 20.9589 15.6475 20.9403 15.5604 20.9042C15.4733 20.8682 15.3941 20.8153 15.3275 20.7486C15.2608 20.682 15.2079 20.6028 15.1718 20.5157C15.1358 20.4286 15.1172 20.3353 15.1172 20.241C15.1172 20.1467 15.1358 20.0533 15.1718 19.9662C15.2079 19.8791 15.2608 19.8 15.3275 19.7333L19.558 15.5028C19.6246 15.4361 19.7038 15.3831 19.7909 15.347C19.878 15.3109 19.9714 15.2923 20.0657 15.2923C20.1599 15.2923 20.2533 15.3109 20.3404 15.347C20.4275 15.3831 20.5067 15.4361 20.5733 15.5028Z" fill="#FFAC33"/>
<path d="M15.3276 21.9632C15.9988 21.9632 16.5429 21.4191 16.5429 20.7479C16.5429 20.0767 15.9988 19.5326 15.3276 19.5326C14.6564 19.5326 14.1123 20.0767 14.1123 20.7479C14.1123 21.4191 14.6564 21.9632 15.3276 21.9632Z" fill="#FFAC33"/>
<path d="M20.5737 16.7174C21.2449 16.7174 21.789 16.1733 21.789 15.5021C21.789 14.8309 21.2449 14.2868 20.5737 14.2868C19.9025 14.2868 19.3584 14.8309 19.3584 15.5021C19.3584 16.1733 19.9025 16.7174 20.5737 16.7174Z" fill="#FFAC33"/>
<path d="M15.3282 21.4424C15.7118 21.4424 16.0227 21.1314 16.0227 20.7479C16.0227 20.3644 15.7118 20.0535 15.3282 20.0535C14.9447 20.0535 14.6338 20.3644 14.6338 20.7479C14.6338 21.1314 14.9447 21.4424 15.3282 21.4424Z" fill="#FFCC4D"/>
<path d="M20.5734 16.1965C20.9569 16.1965 21.2678 15.8856 21.2678 15.5021C21.2678 15.1186 20.9569 14.8076 20.5734 14.8076C20.1898 14.8076 19.8789 15.1186 19.8789 15.5021C19.8789 15.8856 20.1898 16.1965 20.5734 16.1965Z" fill="#FFCC4D"/>
<path d="M23.5441 20.3764C23.5933 20.4255 23.6323 20.4839 23.6589 20.5481C23.6855 20.6123 23.6992 20.6812 23.6992 20.7507C23.6992 20.8202 23.6855 20.8891 23.6589 20.9533C23.6323 21.0175 23.5933 21.0759 23.5441 21.125L21.1302 23.5382C21.0811 23.5873 21.0227 23.6263 20.9585 23.6529C20.8943 23.6795 20.8254 23.6932 20.7559 23.6932C20.6864 23.6932 20.6176 23.6795 20.5533 23.6529C20.4891 23.6263 20.4308 23.5873 20.3816 23.5382C20.3325 23.489 20.2935 23.4307 20.2669 23.3665C20.2403 23.3022 20.2266 23.2334 20.2266 23.1639C20.2266 23.0944 20.2403 23.0255 20.2669 22.9613C20.2935 22.8971 20.3325 22.8387 20.3816 22.7896L22.7955 20.3764C22.8446 20.3272 22.903 20.2882 22.9672 20.2616C23.0314 20.235 23.1003 20.2213 23.1698 20.2213C23.2393 20.2213 23.3082 20.235 23.3724 20.2616C23.4366 20.2882 23.495 20.3272 23.5441 20.3764Z" fill="#FFAC33"/>
<path d="M8.33355 20.1389L4.86133 16.6667L20.8336 0.694443H24.3058V4.16667L8.33355 20.1389Z" fill="#CCD6DD"/>
<path d="M24.306 0.694443V4.16667L8.33377 20.1389L6.59766 18.4028L24.306 0.694443Z" fill="#9AAAB4"/>
<path d="M1.78867 22.7833C1.60343 22.5996 1.47536 22.3661 1.41992 22.1111L5.0602 17.809L5.54701 17.3215C5.93867 16.9299 6.63728 16.9931 7.10812 17.4639L7.53381 17.8889C8.00395 18.359 8.06714 19.0576 7.67548 19.4493L7.16089 19.9639L2.89006 23.5785C2.63352 23.5236 2.39849 23.3952 2.21367 23.209L1.78867 22.7833Z" fill="#D99E82"/>
<path d="M1.78867 22.7833C1.60343 22.5996 1.47536 22.3661 1.41992 22.1111L2.35187 21.0097L2.86367 23.5681C2.61771 23.5116 2.39266 23.3869 2.21437 23.2083L1.78867 22.7833ZM4.08728 18.9597L4.70395 22.0437L3.82895 22.784L3.2595 19.9368L4.08728 18.9597ZM5.0602 17.809L5.54701 17.3215C5.61334 17.2575 5.68985 17.2049 5.77339 17.166L6.45256 20.5632L5.57756 21.3035L4.91298 17.9819L5.0602 17.809ZM6.72756 17.1924C6.86298 17.2583 6.99284 17.3486 7.10812 17.4646L7.53381 17.8896C7.7102 18.066 7.82895 18.2743 7.88867 18.4868C7.98728 18.841 7.92062 19.2056 7.67548 19.45L7.26159 19.8639L6.72756 17.1924C6.72756 17.1917 6.72756 17.1917 6.72756 17.1924Z" fill="#BF6952"/>
<path d="M1.90972 25C2.96443 25 3.81944 24.145 3.81944 23.0903C3.81944 22.0356 2.96443 21.1806 1.90972 21.1806C0.855012 21.1806 0 22.0356 0 23.0903C0 24.145 0.855012 25 1.90972 25Z" fill="#8A4633"/>
<path d="M4.42632 15.5028C4.35959 15.5694 4.30665 15.6485 4.27053 15.7356C4.23441 15.8227 4.21582 15.9161 4.21582 16.0104C4.21582 16.1047 4.23441 16.1981 4.27053 16.2852C4.30665 16.3723 4.35959 16.4514 4.42632 16.5181L8.65687 20.7486C8.72354 20.8153 8.80268 20.8682 8.88978 20.9042C8.97688 20.9403 9.07024 20.9589 9.16451 20.9589C9.25879 20.9589 9.35214 20.9403 9.43925 20.9042C9.52635 20.8682 9.60549 20.8153 9.67215 20.7486C9.73882 20.682 9.7917 20.6028 9.82778 20.5157C9.86385 20.4286 9.88242 20.3353 9.88242 20.241C9.88242 20.1467 9.86385 20.0533 9.82778 19.9662C9.7917 19.8791 9.73882 19.8 9.67215 19.7333L5.4416 15.5028C5.37497 15.4361 5.29584 15.3831 5.20873 15.347C5.12163 15.3109 5.02826 15.2923 4.93396 15.2923C4.83966 15.2923 4.74629 15.3109 4.65918 15.347C4.57208 15.3831 4.49295 15.4361 4.42632 15.5028Z" fill="#FFAC33"/>
<path d="M9.67231 21.9632C10.3435 21.9632 10.8876 21.4191 10.8876 20.7479C10.8876 20.0767 10.3435 19.5326 9.67231 19.5326C9.00113 19.5326 8.45703 20.0767 8.45703 20.7479C8.45703 21.4191 9.00113 21.9632 9.67231 21.9632Z" fill="#FFAC33"/>
<path d="M4.42622 16.7174C5.09739 16.7174 5.64149 16.1733 5.64149 15.5021C5.64149 14.8309 5.09739 14.2868 4.42622 14.2868C3.75504 14.2868 3.21094 14.8309 3.21094 15.5021C3.21094 16.1733 3.75504 16.7174 4.42622 16.7174Z" fill="#FFAC33"/>
<path d="M9.67198 21.4424C10.0555 21.4424 10.3664 21.1314 10.3664 20.7479C10.3664 20.3644 10.0555 20.0535 9.67198 20.0535C9.28845 20.0535 8.97754 20.3644 8.97754 20.7479C8.97754 21.1314 9.28845 21.4424 9.67198 21.4424Z" fill="#FFCC4D"/>
<path d="M4.42687 16.1965C4.8104 16.1965 5.12131 15.8856 5.12131 15.5021C5.12131 15.1186 4.8104 14.8076 4.42687 14.8076C4.04334 14.8076 3.73242 15.1186 3.73242 15.5021C3.73242 15.8856 4.04334 16.1965 4.42687 16.1965Z" fill="#FFCC4D"/>
<path d="M1.4559 20.3764C1.40672 20.4255 1.36771 20.4839 1.3411 20.5481C1.31448 20.6123 1.30078 20.6812 1.30078 20.7507C1.30078 20.8202 1.31448 20.8891 1.3411 20.9533C1.36771 21.0175 1.40672 21.0759 1.4559 21.125L3.86979 23.5382C3.91894 23.5873 3.9773 23.6263 4.04152 23.6529C4.10574 23.6795 4.17458 23.6932 4.24409 23.6932C4.31361 23.6932 4.38244 23.6795 4.44667 23.6529C4.51089 23.6263 4.56924 23.5873 4.6184 23.5382C4.66755 23.489 4.70655 23.4307 4.73315 23.3665C4.75975 23.3022 4.77344 23.2334 4.77344 23.1639C4.77344 23.0944 4.75975 23.0255 4.73315 22.9613C4.70655 22.8971 4.66755 22.8387 4.6184 22.7896L2.20451 20.3764C2.15537 20.3272 2.09702 20.2882 2.03279 20.2616C1.96857 20.235 1.89973 20.2213 1.8302 20.2213C1.76068 20.2213 1.69184 20.235 1.62762 20.2616C1.56339 20.2882 1.50504 20.3272 1.4559 20.3764Z" fill="#FFAC33"/>
</g>
<defs>
<clipPath id="clip0_757_124">
<rect width="25" height="25" fill="white"/>
</clipPath>
</defs>
</svg>
