<svg width="20" height="20" viewBox="0 0 20 20" fill="none" xmlns="http://www.w3.org/2000/svg">
<g id="material-symbols:help-outline">
<path id="Vector" d="M9.95817 15C10.2498 15 10.4965 14.8991 10.6982 14.6975C10.8998 14.4958 11.0004 14.2494 10.9998 13.9583C10.9998 13.6666 10.8993 13.42 10.6982 13.2183C10.4971 13.0166 10.2504 12.9161 9.95817 12.9166C9.6665 12.9166 9.42011 13.0175 9.219 13.2191C9.01789 13.4208 8.91706 13.6672 8.9165 13.9583C8.9165 14.25 9.01734 14.4966 9.219 14.6983C9.42067 14.9 9.66706 15.0005 9.95817 15ZM9.20817 11.7916H10.7498C10.7498 11.3333 10.8021 10.9722 10.9065 10.7083C11.0109 10.4444 11.3059 10.0833 11.7915 9.62496C12.1526 9.26385 12.4373 8.91996 12.6457 8.59329C12.854 8.26663 12.9582 7.8744 12.9582 7.41663C12.9582 6.63885 12.6734 6.04163 12.104 5.62496C11.5346 5.20829 10.8609 4.99996 10.0832 4.99996C9.2915 4.99996 8.649 5.20829 8.15567 5.62496C7.66234 6.04163 7.31873 6.54163 7.12484 7.12496L8.49984 7.66663C8.56928 7.41663 8.72567 7.14579 8.969 6.85413C9.21234 6.56246 9.58373 6.41663 10.0832 6.41663C10.5276 6.41663 10.8609 6.53829 11.0832 6.78163C11.3054 7.02496 11.4165 7.29218 11.4165 7.58329C11.4165 7.86107 11.3332 8.12163 11.1665 8.36496C10.9998 8.60829 10.7915 8.83385 10.5415 9.04163C9.93039 9.58329 9.55539 9.99301 9.4165 10.2708C9.27762 10.5486 9.20817 11.0555 9.20817 11.7916ZM9.99984 18.3333C8.84706 18.3333 7.76373 18.1144 6.74984 17.6766C5.73595 17.2388 4.854 16.6452 4.104 15.8958C3.354 15.1458 2.76039 14.2638 2.32317 13.25C1.88595 12.2361 1.66706 11.1527 1.6665 9.99996C1.6665 8.84718 1.88539 7.76385 2.32317 6.74996C2.76095 5.73607 3.35456 4.85413 4.104 4.10413C4.854 3.35413 5.73595 2.76051 6.74984 2.32329C7.76373 1.88607 8.84706 1.66718 9.99984 1.66663C11.1526 1.66663 12.2359 1.88551 13.2498 2.32329C14.2637 2.76107 15.1457 3.35468 15.8957 4.10413C16.6457 4.85413 17.2396 5.73607 17.6773 6.74996C18.1151 7.76385 18.3337 8.84718 18.3332 9.99996C18.3332 11.1527 18.1143 12.2361 17.6765 13.25C17.2387 14.2638 16.6451 15.1458 15.8957 15.8958C15.1457 16.6458 14.2637 17.2397 13.2498 17.6775C12.2359 18.1152 11.1526 18.3338 9.99984 18.3333ZM9.99984 16.6666C11.8609 16.6666 13.4373 16.0208 14.729 14.7291C16.0207 13.4375 16.6665 11.8611 16.6665 9.99996C16.6665 8.13885 16.0207 6.56246 14.729 5.27079C13.4373 3.97913 11.8609 3.33329 9.99984 3.33329C8.13873 3.33329 6.56234 3.97913 5.27067 5.27079C3.979 6.56246 3.33317 8.13885 3.33317 9.99996C3.33317 11.8611 3.979 13.4375 5.27067 14.7291C6.56234 16.0208 8.13873 16.6666 9.99984 16.6666Z" fill="#ECF6FF"/>
</g>
</svg>
