<svg width="25" height="25" viewBox="0 0 25 25" fill="none" xmlns="http://www.w3.org/2000/svg">
<g clip-path="url(#clip0_757_94)">
<path d="M15.7786 24.6958L4.32234 19.1416C3.97292 18.9723 3.82698 18.5517 3.99636 18.2022L12.0046 1.68408C12.174 1.33466 12.5946 1.18872 12.944 1.3581L24.4003 6.9123C24.7497 7.08168 24.8957 7.50229 24.7263 7.8517L16.718 24.3699C16.5487 24.7193 16.128 24.8652 15.7786 24.6958Z" fill="#FF6F1F"/>
<path d="M3.93555 18.3272L5.66763 14.7545C8.1981 15.9813 10.7621 12.8483 15.2044 15.002C17.2124 15.9755 18.7056 17.1465 19.7394 18.1375L16.6573 24.4948C16.5213 24.7752 16.1838 24.8923 15.9034 24.7564L4.19712 19.081C3.91675 18.9451 3.79961 18.6076 3.93555 18.3272Z" fill="#2B3B47"/>
<path d="M17.0167 10.8076C16.0924 12.7141 13.7976 13.5103 11.8911 12.586C9.98465 11.6617 9.18841 9.36694 10.1127 7.46045C11.037 5.55395 13.3318 4.75771 15.2383 5.68203C17.1448 6.60635 17.941 8.90117 17.0167 10.8076Z" fill="white"/>
<path d="M14.1203 20.3482H1.38867C1.00034 20.3482 0.685547 20.0335 0.685547 19.6451V1.28804C0.685547 0.89971 1.00034 0.584915 1.38867 0.584915H14.1204C14.5087 0.584915 14.8235 0.89971 14.8235 1.28804V19.6451C14.8234 20.0335 14.5086 20.3482 14.1203 20.3482Z" fill="white"/>
<path d="M13.6458 19.9503H0.914062C0.525732 19.9503 0.210938 19.6355 0.210938 19.2471V0.890045C0.210938 0.501715 0.525732 0.18692 0.914062 0.18692H13.6458C14.0341 0.18692 14.3489 0.501715 14.3489 0.890045V19.2471C14.3489 19.6355 14.0341 19.9503 13.6458 19.9503Z" fill="#FF6F1F"/>
<path d="M0.210938 19.386V15.4156C3.02314 15.4156 3.96348 11.4779 8.90034 11.4779C11.1318 11.4779 12.9863 11.8801 14.3488 12.321V19.386C14.3488 19.6976 14.0962 19.9502 13.7846 19.9502H0.775195C0.463574 19.9502 0.210938 19.6976 0.210938 19.386Z" fill="#2B3B47"/>
<path d="M8.70093 6.91323C8.70093 9.03198 6.98335 10.7495 4.86465 10.7495C2.74595 10.7495 1.02832 9.03193 1.02832 6.91323C1.02832 4.79453 2.7459 3.07695 4.8646 3.07695C6.9833 3.07695 8.70093 4.79448 8.70093 6.91323Z" fill="white"/>
</g>
<defs>
<clipPath id="clip0_757_94">
<rect width="25" height="25" fill="white"/>
</clipPath>
</defs>
</svg>
