<svg width="20" height="20" viewBox="0 0 20 20" fill="none" xmlns="http://www.w3.org/2000/svg">
<g id="fluent:cookies-24-regular">
<path id="Vector" d="M9.99984 1.66663C10.5948 1.66663 11.1823 1.72913 11.7548 1.85163C11.8647 1.87515 11.9662 1.92784 12.0486 2.00416C12.131 2.08048 12.1914 2.1776 12.2233 2.28531C12.2551 2.39303 12.2574 2.50734 12.2298 2.61624C12.2023 2.72514 12.1458 2.82459 12.0665 2.90413C11.8044 3.16728 11.6174 3.4957 11.5248 3.85539C11.4322 4.21507 11.4375 4.59297 11.54 4.94996C11.6424 5.30695 11.8385 5.63007 12.1077 5.88588C12.377 6.14169 12.7097 6.3209 13.0715 6.40496C13.2204 6.43934 13.3516 6.52709 13.4402 6.65162C13.5288 6.77615 13.5687 6.92883 13.5523 7.08079C13.5079 7.51941 13.6038 7.96082 13.8262 8.34149C14.0486 8.72216 14.386 9.02248 14.7899 9.19922C15.1937 9.37597 15.6433 9.42003 16.0738 9.32508C16.5043 9.23012 16.8936 9.00104 17.1857 8.67079C17.2656 8.58034 17.3699 8.51495 17.4862 8.48253C17.6024 8.4501 17.7256 8.45203 17.8408 8.48807C17.9559 8.52411 18.0582 8.59273 18.1352 8.68564C18.2123 8.77854 18.2608 8.89177 18.2748 9.01163C18.314 9.33663 18.3332 9.66746 18.3332 9.99996C18.3332 14.6025 14.6023 18.3333 9.99984 18.3333C5.39734 18.3333 1.6665 14.6025 1.6665 9.99996C1.6665 5.39746 5.39734 1.66663 9.99984 1.66663ZM9.99984 2.91663C8.62608 2.91671 7.28198 3.31626 6.13125 4.06662C4.98053 4.81699 4.07283 5.88578 3.51871 7.14283C2.96459 8.39987 2.78796 9.79093 3.01034 11.1466C3.23271 12.5022 3.8445 13.7639 4.77118 14.7781C5.69786 15.7922 6.89945 16.515 8.2296 16.8584C9.55974 17.2018 10.961 17.151 12.2628 16.7122C13.5646 16.2734 14.7107 15.4655 15.5616 14.3869C16.4124 13.3084 16.9312 12.0056 17.0548 10.6375L17.0707 10.4233L17.0765 10.2925L16.9148 10.3658C16.6398 10.4816 16.3482 10.56 16.0457 10.5991L15.8173 10.6191L15.6248 10.625C14.827 10.625 14.0557 10.3389 13.4508 9.81876C12.8459 9.29858 12.4476 8.57876 12.3282 7.78996L12.3073 7.62246L12.2957 7.46663L12.1748 7.41663C11.6428 7.177 11.1829 6.80204 10.841 6.32915C10.4991 5.85626 10.2872 5.30198 10.2265 4.72163L10.2123 4.54163L10.2082 4.37496C10.2082 4.00246 10.2698 3.63996 10.3865 3.29829L10.4623 3.09579L10.5332 2.93746L10.3032 2.92329L9.99984 2.91663ZM12.4998 13.3333C12.7209 13.3333 12.9328 13.4211 13.0891 13.5774C13.2454 13.7336 13.3332 13.9456 13.3332 14.1666C13.3332 14.3876 13.2454 14.5996 13.0891 14.7559C12.9328 14.9122 12.7209 15 12.4998 15C12.2788 15 12.0669 14.9122 11.9106 14.7559C11.7543 14.5996 11.6665 14.3876 11.6665 14.1666C11.6665 13.9456 11.7543 13.7336 11.9106 13.5774C12.0669 13.4211 12.2788 13.3333 12.4998 13.3333ZM6.6665 12.5C6.88752 12.5 7.09948 12.5878 7.25576 12.744C7.41204 12.9003 7.49984 13.1123 7.49984 13.3333C7.49984 13.5543 7.41204 13.7663 7.25576 13.9225C7.09948 14.0788 6.88752 14.1666 6.6665 14.1666C6.44549 14.1666 6.23353 14.0788 6.07725 13.9225C5.92097 13.7663 5.83317 13.5543 5.83317 13.3333C5.83317 13.1123 5.92097 12.9003 6.07725 12.744C6.23353 12.5878 6.44549 12.5 6.6665 12.5ZM9.99984 9.16663C10.2209 9.16663 10.4328 9.25442 10.5891 9.4107C10.7454 9.56698 10.8332 9.77894 10.8332 9.99996C10.8332 10.221 10.7454 10.4329 10.5891 10.5892C10.4328 10.7455 10.2209 10.8333 9.99984 10.8333C9.77882 10.8333 9.56686 10.7455 9.41058 10.5892C9.2543 10.4329 9.1665 10.221 9.1665 9.99996C9.1665 9.77894 9.2543 9.56698 9.41058 9.4107C9.56686 9.25442 9.77882 9.16663 9.99984 9.16663ZM5.83317 6.66663C6.05418 6.66663 6.26615 6.75442 6.42243 6.9107C6.57871 7.06698 6.6665 7.27895 6.6665 7.49996C6.6665 7.72097 6.57871 7.93293 6.42243 8.08921C6.26615 8.24549 6.05418 8.33329 5.83317 8.33329C5.61216 8.33329 5.4002 8.24549 5.24392 8.08921C5.08763 7.93293 4.99984 7.72097 4.99984 7.49996C4.99984 7.27895 5.08763 7.06698 5.24392 6.9107C5.4002 6.75442 5.61216 6.66663 5.83317 6.66663Z" fill="#ECF6FF"/>
</g>
</svg>
