<svg width="25" height="25" viewBox="0 0 25 25" fill="none" xmlns="http://www.w3.org/2000/svg">
<path d="M18.508 11.3672L18.4689 8.65625C18.4611 8.27344 18.2424 7.92187 17.8986 7.75781L17.2736 7.44531C16.3674 7 15.4064 6.67969 14.4142 6.50781C13.5627 6.35937 12.6955 6.32812 11.8439 6.40625C11.4377 6.44531 11.0705 6.64844 10.8205 6.96875C10.6053 7.24912 10.4494 7.57027 10.3621 7.91272C10.2748 8.25518 10.258 8.61179 10.3127 8.96094L10.3986 9.50781C10.5158 10.2812 10.7189 11.0469 11.0002 11.7734L11.5939 13.3125L13.8049 14.0625L15.758 13.3125L15.297 11.6328L14.2345 8.82031C14.1799 8.67187 14.2892 8.50781 14.4455 8.50781H14.5861C15.2424 8.5 15.8908 8.60156 16.5158 8.8125L16.7111 8.88281C16.8439 8.92969 16.9299 9.04687 16.9455 9.17969L17.1095 11.1484C17.1174 11.2891 17.0783 11.4297 16.9845 11.5312C16.8986 11.625 16.8595 11.7422 16.8595 11.875V12.1406C16.8595 12.5312 17.172 12.8438 17.5627 12.8438H17.8283C18.2189 12.8438 18.5314 12.5312 18.5314 12.1406C18.508 11.7578 18.508 11.3672 18.508 11.3672Z" fill="#B87A66"/>
<path d="M8.90611 23.1094C8.53111 23.7109 7.99986 23.2969 7.99986 23.2969L4.92174 21.3984C4.89981 21.3854 4.88084 21.3679 4.86604 21.3471C4.85125 21.3263 4.84095 21.3027 4.8358 21.2777C4.83066 21.2527 4.83078 21.2269 4.83616 21.202C4.84154 21.177 4.85206 21.1535 4.86705 21.1328C4.96861 20.9922 5.11705 20.9063 5.28893 20.8906H5.32018C5.62486 20.8594 5.92955 20.875 6.22643 20.9297L7.10924 21.0938C7.34361 21.1406 7.57799 21.0781 7.75768 20.9297C7.9608 20.7578 8.11705 20.5313 8.20299 20.2734L9.0233 17.8047C9.19518 17.3047 9.4608 16.8359 9.82018 16.4453L11.1483 14.9766C11.4764 14.6094 11.6483 14.125 11.6092 13.6328L11.5858 13.3203L12.3046 13.4375C13.0858 13.5625 13.8671 13.5703 14.6483 13.4688L15.7577 13.3203L15.7967 13.8438C15.8099 14.0365 15.7952 14.2302 15.753 14.4188L16.7889 15.6016C16.8983 15.7344 17.0858 15.7656 17.2342 15.6875C17.2342 15.6875 21.0389 13.5938 21.2889 13.4922C21.9296 13.2344 22.1092 13.8672 22.1092 13.8672L23.4139 17.1484C23.453 17.2422 23.3983 17.3594 23.3124 17.3906C23.1561 17.4453 22.9842 17.4219 22.8436 17.3359L22.8124 17.3203C22.5546 17.1641 22.328 16.9766 22.1249 16.7578L21.5311 16.1094C21.4548 16.0247 21.3604 15.9582 21.2549 15.9149C21.1494 15.8717 21.0356 15.8527 20.9217 15.8594C20.7264 15.875 20.5311 15.9219 20.3514 16.0156C20.3436 16.0156 20.3436 16.0078 20.3436 16.0078L16.7967 17.9063C16.3905 18.125 15.8983 18.1094 15.5077 17.8672C15.1405 17.6484 14.828 17.3516 14.5858 17L14.0389 16.2188L14.0467 16.2094L11.5155 17.8125C11.1561 18.0391 10.8827 18.375 10.7264 18.7734C10.2499 19.9922 9.18736 22.6484 8.90611 23.1094Z" fill="#B87A66"/>
<path d="M13.9844 16.2969C13.9844 16.3125 14.0859 16.4844 14.2109 16.6953C14.5156 17.2031 14.9297 17.6484 15.4219 17.9844L15.7656 18.2266C15.8828 18.3047 16.0469 18.2734 16.1172 18.1562L16.2188 17.9922C16.6172 17.3594 16.8672 16.6484 16.9531 15.9141L16.9766 15.7188C16.9837 15.6636 16.9798 15.6075 16.9651 15.5538C16.9503 15.5002 16.925 15.45 16.8906 15.4062L16.8281 15.3203C16.5625 14.9688 15.6563 13.6016 15.6563 13.6016L13.9844 16.2969Z" fill="#636363"/>
<path d="M10.453 7.61719L10.6952 10.3516L9.29674 11.6719C9.20299 11.7578 9.10924 11.8359 9.00768 11.9062L8.97643 11.9297C8.61135 12.1807 8.18437 12.3266 7.74205 12.3516L6.69518 12.4219C6.61705 12.4297 6.53893 12.4609 6.48424 12.5156L5.99205 12.9844C5.93736 13.0313 5.86705 13.0625 5.79674 13.0625C5.60924 13.0625 5.47643 12.8906 5.51549 12.7031C5.54674 12.5859 5.45299 12.4688 5.32799 12.4688H5.26549C5.24205 12.4688 5.21861 12.4766 5.19518 12.4844L4.35143 12.8672C4.30609 12.888 4.2564 12.8975 4.20659 12.895C4.15678 12.8924 4.10832 12.8779 4.06535 12.8525C4.02238 12.8272 3.98617 12.7919 3.9598 12.7495C3.93343 12.7072 3.9177 12.6591 3.91393 12.6094C3.90611 12.5 3.95299 12.3906 4.04674 12.3203L4.38268 12.0937C4.85143 11.7734 5.36705 11.5312 5.92174 11.3828L7.74986 10.8828C8.03111 10.8047 8.2733 10.6406 8.44518 10.4062L10.453 7.61719Z" fill="#C68D7B"/>
<path d="M11.6566 13.3281L12.6409 13.5C13.3284 13.625 14.0316 13.6172 14.7191 13.5L15.6019 13.3438C15.68 13.3281 15.7503 13.3906 15.7581 13.4688C15.8519 13.8125 15.8753 14.1719 15.7972 14.5156C15.6545 15.1838 15.2528 15.7682 14.68 16.1406L12.1409 17.7031C12.0159 17.7813 11.8519 17.7813 11.7347 17.6875L11.4378 17.4609C10.8919 17.0503 10.4458 16.5214 10.1331 15.9141C10.0983 15.8473 10.0855 15.7713 10.0967 15.6968C10.108 15.6224 10.1426 15.5535 10.1956 15.5L10.7112 14.9922C11.0316 14.6719 11.2737 14.2813 11.4144 13.8438L11.5628 13.3828C11.5784 13.3438 11.6175 13.3203 11.6566 13.3281Z" fill="#9B9B9B"/>
<path d="M5.07812 17.1875C5.59613 17.1875 6.09291 16.9817 6.45919 16.6154C6.82547 16.2492 7.03125 15.7524 7.03125 15.2344C7.03125 14.7164 6.82547 14.2196 6.45919 13.8533C6.09291 13.487 5.59613 13.2812 5.07812 13.2812C4.56012 13.2812 4.06334 13.487 3.69706 13.8533C3.33078 14.2196 3.125 14.7164 3.125 15.2344C3.125 15.7524 3.33078 16.2492 3.69706 16.6154C4.06334 16.9817 4.56012 17.1875 5.07812 17.1875Z" fill="#FF6723"/>
<path d="M7.03038 15.2961C7.03225 15.2341 7.0312 15.1721 7.02726 15.1102C6.58585 15.0916 6.16463 14.9201 5.83585 14.625L6.53116 13.9297C6.48931 13.8831 6.44525 13.8385 6.39913 13.7961L5.69523 14.4992C5.38975 14.1665 5.21278 13.7358 5.19601 13.2844C5.13618 13.2809 5.07622 13.2801 5.01632 13.282C5.03429 13.7664 5.21945 14.2445 5.57023 14.625L5.08585 15.1094L3.76554 13.7891C3.71866 13.8305 3.67413 13.875 3.63273 13.9219L4.95304 15.2422L4.46866 15.7266C4.10149 15.3869 3.62475 15.1901 3.12491 15.1719C3.12306 15.2339 3.1241 15.2959 3.12804 15.3578C3.57728 15.3759 4.0053 15.5538 4.33507 15.8594L3.63898 16.5555C3.68116 16.6023 3.7257 16.6461 3.77179 16.6883L4.45929 16C4.75731 16.3245 4.93156 16.7435 4.95148 17.1836C5.01389 17.1876 5.07646 17.1887 5.13898 17.1867C5.12161 16.6943 4.93067 16.2238 4.59991 15.8586L5.08429 15.3742L6.39054 16.6805C6.43741 16.6383 6.48116 16.5945 6.52335 16.5477L5.21866 15.2422L5.70304 14.7578C6.06819 15.0881 6.53831 15.2788 7.03038 15.2961Z" fill="black"/>
<path d="M9.42188 21.9766C9.73438 21.2344 10.1016 20.3281 10.4062 19.5625L8.70312 18.7812L8.21094 20.2734C8.14844 20.4609 8.05469 20.625 7.92188 20.7734C8.32812 21.0859 8.97656 21.6172 9.42188 21.9766Z" fill="#D3D3D3"/>
<path d="M11.4957 13.4719C11.4765 13.4679 11.4572 13.4642 11.4379 13.4609C11.385 13.4493 11.3358 13.4246 11.2949 13.3891C11.254 13.3537 11.2225 13.3085 11.2035 13.2578L10.7113 11.5234C10.391 10.0625 10.3207 8.85156 10.3676 8.09375C10.391 7.8125 10.4691 7.54688 10.6019 7.29688L10.7426 7.42969C10.9457 7.61719 11.2191 7.71875 11.4926 7.71875C11.9066 7.71094 12.2816 7.46875 12.4535 7.08594L12.766 6.39063C12.7894 6.35938 12.8207 6.34375 12.8519 6.34375H13.5629C13.6254 6.34375 13.6722 6.40625 13.6488 6.46875L13.2347 7.47656C13.1879 7.57812 13.1019 7.88281 13.0551 8.19531C12.9769 8.69531 13.3988 9.14844 13.9066 9.07812L14.0004 9.05469L14.2035 8.99219C14.3129 8.96094 14.4222 9.01563 14.4613 9.11719L15.1019 10.7891L15.9222 13.1172C15.9691 13.2813 15.8676 13.4531 15.6957 13.4844L15.5941 13.5C14.3129 13.7344 12.891 13.7344 11.6097 13.4922C11.5707 13.4875 11.5316 13.4789 11.4957 13.4719ZM20.2347 16.2266L20.2504 16.2188L20.2941 16.2008C20.4035 16.1555 20.4808 16.1227 20.5707 16.1094C20.7035 16.0859 20.8441 16.1016 20.9769 16.1406L21.2816 16.2344C21.6254 16.3359 21.9144 16.5547 22.1176 16.8516L22.5551 17.5C22.6176 17.6016 22.7426 17.6484 22.8597 17.6172L23.4066 17.4688C23.5707 17.4219 23.6566 17.2422 23.5941 17.0781L22.0316 13.2344C21.9691 13.0859 21.5863 13.1016 21.4379 13.1641L19.5785 14.2188C19.3207 14.3203 19.1957 14.6172 19.3051 14.875V14.8828C19.3754 15.0547 19.5707 15.1406 19.7426 15.0703H19.7504C19.8754 15.0156 20.016 15.1172 20.0082 15.25C20.0027 15.3767 20.0017 15.5036 20.0051 15.6305C20.0082 15.7984 20.0105 15.9508 19.9926 16.0078C19.9847 16.0469 19.9847 16.0859 20.0004 16.1172C20.016 16.2187 20.1254 16.2656 20.2347 16.2266ZM8.07849 20.2656L8.07068 20.2734L8.05271 20.3023C7.98474 20.4109 7.94021 20.482 7.87537 20.5547C7.78162 20.6562 7.66443 20.7266 7.53162 20.7734L7.23474 20.875C6.8988 20.9922 6.53162 20.9922 6.19568 20.8672L5.4613 20.6016C5.4067 20.582 5.3474 20.5798 5.29148 20.5952C5.23556 20.6105 5.18574 20.6428 5.1488 20.6875L4.79724 21.1328C4.69568 21.2734 4.73474 21.4688 4.87537 21.5547L8.40662 23.7266C8.54724 23.8125 8.84412 23.5703 8.93005 23.4297L9.81287 21.4766C9.9613 21.2422 9.88318 20.9297 9.6488 20.7812L9.64099 20.7734C9.56514 20.7277 9.47437 20.7135 9.38818 20.734C9.30199 20.7544 9.22727 20.8079 9.18005 20.8828L9.17224 20.8906C9.10193 21.0078 8.93005 21.0078 8.85974 20.8984C8.78381 20.7847 8.70381 20.6736 8.6199 20.5656C8.52615 20.4406 8.44333 20.3313 8.42224 20.2812C8.41005 20.245 8.38505 20.2144 8.35193 20.1953C8.30572 20.1712 8.25221 20.165 8.20171 20.178C8.15122 20.191 8.10732 20.2222 8.07849 20.2656Z" fill="#FF6723"/>
<path d="M10.149 4.80782C10.149 4.88205 10.1344 4.95555 10.106 5.02412C10.0776 5.0927 10.036 5.15501 9.98347 5.2075C9.93098 5.25999 9.86867 5.30162 9.8001 5.33003C9.73152 5.35843 9.65802 5.37305 9.58379 5.37305C9.50956 5.37305 9.43606 5.35843 9.36748 5.33003C9.29891 5.30162 9.23659 5.25999 9.18411 5.2075C9.13162 5.15501 9.08999 5.0927 9.06158 5.02412C9.03318 4.95555 9.01855 4.88205 9.01855 4.80782C9.01855 4.65791 9.07811 4.51414 9.18411 4.40814C9.29011 4.30214 9.43388 4.24258 9.58379 4.24258C9.7337 4.24258 9.87747 4.30214 9.98347 4.40814C10.0895 4.51414 10.149 4.65791 10.149 4.80782ZM13.46 4.80782C13.46 4.95773 13.4004 5.1015 13.2944 5.2075C13.1884 5.3135 13.0446 5.37305 12.8947 5.37305C12.7448 5.37305 12.601 5.3135 12.495 5.2075C12.389 5.1015 12.3295 4.95773 12.3295 4.80782C12.3295 4.65791 12.389 4.51414 12.495 4.40814C12.601 4.30214 12.7448 4.24258 12.8947 4.24258C13.0446 4.24258 13.1884 4.30214 13.2944 4.40814C13.4004 4.51414 13.46 4.65791 13.46 4.80782Z" fill="#BB806E"/>
<path d="M11.63 2.31485H10.8699C10.0175 2.31485 9.37768 3.02735 9.47455 3.91016L9.6019 5.86876C9.64534 6.19034 9.80382 6.48529 10.048 6.69902C10.2922 6.91275 10.6055 7.03078 10.93 7.03126H11.5753C12.2456 7.03126 12.816 6.5336 12.9035 5.86876L13.0261 3.91016C13.0527 3.71119 13.0365 3.50883 12.9785 3.31664C12.9205 3.12445 12.8222 2.94687 12.69 2.7958C12.5578 2.64474 12.3948 2.52367 12.212 2.44073C12.0292 2.35778 11.8308 2.31486 11.63 2.31485Z" fill="#C68D7B"/>
<path d="M11.2442 5.85548C11.0692 5.85548 10.8989 5.81641 10.7442 5.73594C10.7381 5.73221 10.7312 5.72984 10.7241 5.72896C10.7169 5.72809 10.7097 5.72875 10.7028 5.73089C10.6959 5.73304 10.6896 5.73661 10.6842 5.74139C10.6788 5.74617 10.6745 5.75203 10.6716 5.7586C10.6614 5.77579 10.6638 5.7961 10.6739 5.81329C10.7355 5.90891 10.8201 5.98756 10.9199 6.04203C11.0198 6.09649 11.1317 6.12503 11.2454 6.12503C11.3591 6.12503 11.4711 6.09649 11.5709 6.04203C11.6707 5.98756 11.7553 5.90891 11.8169 5.81329C11.8243 5.80099 11.8266 5.78631 11.8234 5.77232C11.8202 5.75834 11.8117 5.74614 11.7997 5.73829C11.7914 5.73366 11.7821 5.73104 11.7726 5.73063C11.7631 5.73022 11.7537 5.73204 11.745 5.73594C11.5903 5.81526 11.4189 5.85626 11.245 5.85548H11.2442Z" fill="#990838"/>
<path d="M11.1144 4.71328L10.9363 5.2914C10.9282 5.31883 10.9265 5.34776 10.9315 5.37593C10.9365 5.40409 10.948 5.4307 10.9651 5.45367C10.9821 5.47663 11.0043 5.49531 11.0298 5.50823C11.0553 5.52116 11.0835 5.52796 11.1121 5.52812H11.3769C11.4011 5.52812 11.4251 5.52332 11.4474 5.51398C11.4698 5.50465 11.49 5.49097 11.507 5.47375C11.524 5.45652 11.5375 5.43609 11.5465 5.41364C11.5555 5.39119 11.56 5.36717 11.5597 5.34296C11.5596 5.32447 11.5569 5.30608 11.5519 5.28828L11.3746 4.71015C11.3691 4.6933 11.3603 4.67772 11.3488 4.66431C11.3372 4.65091 11.3231 4.63995 11.3072 4.63209C11.2913 4.62423 11.274 4.61962 11.2564 4.61854C11.2387 4.61745 11.221 4.61991 11.2043 4.62578C11.1836 4.63252 11.1648 4.64392 11.1492 4.65909C11.1336 4.67425 11.1217 4.69279 11.1144 4.71328Z" fill="#AB6A55"/>
<path d="M9.95158 4.70313C9.97734 4.59616 10.039 4.50125 10.1262 4.43421C10.2135 4.36717 10.321 4.33205 10.431 4.3347C10.541 4.33735 10.6468 4.37761 10.7307 4.44877C10.8146 4.51994 10.8716 4.6177 10.8922 4.72578V4.74063C10.8923 4.75119 10.8903 4.76166 10.8863 4.77143C10.8823 4.7812 10.8763 4.79006 10.8688 4.79749C10.8613 4.80492 10.8524 4.81077 10.8426 4.81469C10.8328 4.81861 10.8223 4.82053 10.8117 4.82032H10.0445C10.0367 4.82032 10.0289 4.82032 10.0211 4.81797C9.99693 4.81152 9.97619 4.79596 9.96322 4.77455C9.95026 4.75314 9.94609 4.72755 9.95158 4.70313ZM12.5375 4.70313C12.5119 4.59862 12.452 4.50575 12.3672 4.43943C12.2825 4.37312 12.1779 4.33722 12.0703 4.3375C11.9586 4.33788 11.8504 4.37668 11.7639 4.44738C11.6775 4.51808 11.6179 4.61638 11.5953 4.72578V4.74063C11.5951 4.75115 11.597 4.76161 11.601 4.77137C11.6049 4.78114 11.6108 4.79001 11.6182 4.79745C11.6256 4.80489 11.6345 4.81075 11.6443 4.81468C11.654 4.81861 11.6645 4.82053 11.675 4.82032H12.4453C12.4531 4.82032 12.461 4.82032 12.468 4.81797C12.4923 4.81168 12.5132 4.79619 12.5264 4.77476C12.5395 4.75334 12.543 4.72765 12.5375 4.70313Z" fill="white"/>
<path d="M10.1816 4.74062C10.1822 4.69702 10.1919 4.65403 10.2103 4.6145C10.2287 4.57497 10.2553 4.53979 10.2883 4.5113C10.3213 4.48281 10.36 4.46166 10.4018 4.44925C10.4436 4.43683 10.4876 4.43344 10.5308 4.4393C10.574 4.44515 10.6154 4.46012 10.6524 4.4832C10.6894 4.50629 10.7211 4.53697 10.7453 4.57322C10.7695 4.60946 10.7858 4.65044 10.793 4.69344C10.8002 4.73645 10.7982 4.78049 10.7871 4.82265H10.1941C10.1864 4.79598 10.1822 4.7684 10.1816 4.74062ZM12.3074 4.73828C12.3075 4.69783 12.2996 4.65775 12.2842 4.62036C12.2688 4.58297 12.2461 4.549 12.2175 4.52039C12.1889 4.49179 12.1549 4.46912 12.1175 4.45369C12.0801 4.43826 12.0401 4.43036 11.9996 4.43047C11.9178 4.43067 11.8394 4.46309 11.7813 4.5207C11.7233 4.57832 11.6903 4.65649 11.6895 4.73828C11.6918 4.76562 11.6941 4.79297 11.702 4.82031H12.2973C12.3043 4.79354 12.3077 4.76595 12.3074 4.73828Z" fill="#7D4533"/>
<path d="M10.4902 4.56251C10.5209 4.56224 10.5511 4.56997 10.5779 4.58493C10.6046 4.59989 10.6271 4.62157 10.6429 4.64782C10.6588 4.67408 10.6675 4.70401 10.6683 4.73467C10.669 4.76532 10.6618 4.79565 10.6473 4.82266H10.3348C10.3222 4.79708 10.3153 4.76911 10.3145 4.74063C10.3145 4.64298 10.3926 4.56251 10.4902 4.56251ZM12.0027 4.56251C11.9723 4.56224 11.9423 4.56986 11.9158 4.58465C11.8892 4.59943 11.8669 4.62086 11.851 4.64684C11.8352 4.67282 11.8264 4.70247 11.8255 4.73288C11.8245 4.76328 11.8315 4.79341 11.8457 4.82032H12.1582C12.1723 4.79359 12.1793 4.76367 12.1785 4.73346C12.1776 4.70325 12.169 4.67376 12.1535 4.64785C12.1379 4.62193 12.1159 4.60046 12.0897 4.58551C12.0634 4.57056 12.0337 4.56264 12.0035 4.56251H12.0027Z" fill="black"/>
<path d="M10.4395 4.61719C10.4395 4.63169 10.4337 4.6456 10.4234 4.65586C10.4132 4.66611 10.3993 4.67187 10.3848 4.67187C10.3703 4.67187 10.3564 4.66611 10.3461 4.65586C10.3358 4.6456 10.3301 4.63169 10.3301 4.61719C10.3301 4.60268 10.3358 4.58877 10.3461 4.57852C10.3564 4.56826 10.3703 4.5625 10.3848 4.5625C10.3993 4.5625 10.4132 4.56826 10.4234 4.57852C10.4337 4.58877 10.4395 4.60268 10.4395 4.61719ZM11.9605 4.61719C11.9605 4.63179 11.9547 4.6458 11.9444 4.65613C11.9341 4.66646 11.9201 4.67227 11.9055 4.67227C11.8909 4.67227 11.8769 4.66646 11.8665 4.65613C11.8562 4.6458 11.8504 4.63179 11.8504 4.61719C11.8504 4.60268 11.8562 4.58877 11.8664 4.57852C11.8767 4.56826 11.8906 4.5625 11.9051 4.5625C11.9196 4.5625 11.9335 4.56826 11.9437 4.57852C11.954 4.58877 11.9598 4.60268 11.9598 4.61719H11.9605Z" fill="white"/>
<path d="M10.1145 4.09844C10.2632 3.99723 10.4438 3.95389 10.6223 3.97656C10.6474 3.97861 10.6724 3.97084 10.6919 3.95488C10.7115 3.93892 10.7241 3.91601 10.7271 3.89095C10.7302 3.8659 10.7234 3.84064 10.7082 3.82048C10.693 3.80032 10.6706 3.78682 10.6457 3.78281C10.42 3.75409 10.1917 3.80883 10.0035 3.93672C9.98208 3.95143 9.96736 3.97406 9.9626 3.99962C9.95783 4.02519 9.96342 4.0516 9.97813 4.07305C9.99285 4.09449 10.0155 4.10921 10.041 4.11398C10.0666 4.11874 10.093 4.11315 10.1145 4.09844ZM12.4824 3.9375C12.2944 3.80927 12.066 3.75424 11.8402 3.78281C11.8153 3.78682 11.7929 3.80032 11.7777 3.82048C11.7626 3.84064 11.7558 3.8659 11.7588 3.89095C11.7618 3.91601 11.7745 3.93892 11.794 3.95488C11.8136 3.97084 11.8385 3.97861 11.8637 3.97656C12.0422 3.95382 12.2228 3.99717 12.3715 4.09844C12.3821 4.10572 12.3941 4.11084 12.4067 4.11351C12.4193 4.11617 12.4323 4.11633 12.4449 4.11398C12.4576 4.11162 12.4696 4.10679 12.4804 4.09977C12.4912 4.09274 12.5005 4.08366 12.5078 4.07305C12.5151 4.06243 12.5202 4.05048 12.5229 4.03788C12.5256 4.02528 12.5257 4.01228 12.5234 3.99962C12.521 3.98696 12.5162 3.97489 12.5092 3.9641C12.5021 3.95331 12.493 3.94478 12.4824 3.9375Z" fill="#593B39"/>
<path d="M13.3579 3.01485C13.261 2.84534 13.1053 2.71721 12.9204 2.65469C12.7261 2.59237 12.5602 2.46307 12.4524 2.28985C12.3518 2.12455 12.1951 2.00097 12.0109 1.94173C11.8267 1.88248 11.6274 1.89152 11.4493 1.96719C11.3839 1.99439 11.3138 2.0084 11.243 2.0084C11.1722 2.0084 11.1021 1.99439 11.0368 1.96719C10.8608 1.89225 10.6639 1.88255 10.4815 1.93983C10.299 1.99712 10.143 2.11763 10.0415 2.27969C9.93003 2.45621 9.76161 2.58934 9.56413 2.65703C9.44677 2.69762 9.34039 2.76483 9.25333 2.85338C9.16627 2.94194 9.10089 3.04944 9.0623 3.16748C9.02371 3.28551 9.01296 3.41088 9.0309 3.53376C9.04884 3.65664 9.09497 3.7737 9.1657 3.87578C9.2256 3.96345 9.25896 4.06652 9.26179 4.17266V4.34531C9.33218 4.29456 9.41355 4.2611 9.49929 4.24766V3.96875C9.49929 3.33047 10.0149 2.81563 10.6516 2.81563H11.0923C11.1844 2.81563 11.2696 2.87266 11.3048 2.96094C11.4399 3.26094 11.7399 3.45313 12.0673 3.45313H12.5501C12.6769 3.45942 12.7967 3.51352 12.8852 3.60455C12.9738 3.69558 13.0246 3.81678 13.0274 3.94375L13.0079 4.25625L13.018 4.2586H13.0227C13.0977 4.27578 13.168 4.30547 13.2305 4.35078V4.17578C13.2305 4.06977 13.2626 3.96625 13.3227 3.87891C13.5001 3.6211 13.5126 3.28438 13.3579 3.01485ZM9.56882 5.37031C9.45747 5.36755 9.34959 5.33104 9.25945 5.26563V5.58047C9.25945 5.88047 9.44148 6.15078 9.72195 6.26328C9.66186 6.13785 9.6223 6.00359 9.60476 5.86563L9.56882 5.37031ZM12.7899 6.25625C12.8446 6.1336 12.8852 6.00313 12.9024 5.86797L12.9352 5.37031C13.0408 5.36374 13.1424 5.32745 13.2282 5.26563V5.58281C13.2279 5.72529 13.1865 5.86466 13.1089 5.98414C13.0313 6.10362 12.92 6.19812 12.7899 6.25625Z" fill="#593B39"/>
<path d="M9.11304 2.73438H13.5427C13.6138 2.73438 13.6716 2.79844 13.6716 2.87734V3.37266C13.6716 3.45156 13.6138 3.51562 13.5427 3.51562H9.11304C9.04194 3.51562 8.98413 3.45156 8.98413 3.37266V2.87734C8.98413 2.79844 9.04194 2.73438 9.11304 2.73438ZM16.8826 9.26562L16.906 9.51562C16.906 9.54687 16.9373 9.57031 16.9685 9.57031C17.3279 9.54687 18.1404 9.5 18.5466 9.48437C18.5779 9.48437 18.6013 9.45312 18.6013 9.42188L18.5935 8.67969C18.5857 8.25 18.3435 7.86719 17.9607 7.67187L17.2654 7.32812C17.2452 7.31647 17.2243 7.30603 17.2029 7.29688C17.1815 7.28764 17.1606 7.2772 17.1404 7.26562C17.1091 7.25 17.0701 7.26562 17.0544 7.29688L16.4373 8.78906C16.4216 8.82031 16.4373 8.85937 16.4763 8.875L16.6248 8.92969C16.7654 8.98438 16.8669 9.10937 16.8826 9.26562ZM20.0248 16.1789C20.0116 16.1606 20.003 16.1395 19.9998 16.1172C19.9853 16.0826 19.9825 16.0441 19.9919 16.0078C20.0099 15.9508 20.0076 15.7984 20.0052 15.6305C20.0013 15.5037 20.002 15.3767 20.0076 15.25C20.0154 15.1172 19.8748 15.0156 19.7498 15.0703H19.7419C19.6591 15.1034 19.5664 15.1023 19.4844 15.0671C19.4023 15.032 19.3376 14.9657 19.3044 14.8828V14.875C19.2632 14.7781 19.2539 14.6705 19.2779 14.568L18.3349 15.0836L19.0958 16.6758L20.0248 16.1789ZM9.83804 20.9945C10.0373 20.5086 10.2388 20.0055 10.4162 19.5609L8.7021 18.7719L8.23647 20.1727C8.27554 20.1695 8.3146 20.1773 8.35132 20.1953C8.38257 20.2109 8.406 20.2422 8.42163 20.2812C8.44272 20.3312 8.52554 20.4406 8.61929 20.5656C8.7021 20.675 8.79351 20.7961 8.85913 20.8984C8.92944 21.0078 9.10132 21.0078 9.17163 20.8906L9.17944 20.8828C9.27319 20.7266 9.48413 20.6797 9.64038 20.7734L9.64819 20.7812C9.73029 20.8331 9.79609 20.907 9.83804 20.9945ZM4.79663 21.1328L4.92944 20.9687L8.92944 23.4297L8.80444 23.6328C8.72632 23.7656 8.54663 23.8125 8.40601 23.7266L4.87475 21.5547C4.84087 21.533 4.81179 21.5046 4.78933 21.4712C4.76686 21.4379 4.75149 21.4002 4.74417 21.3607C4.73684 21.3211 4.73772 21.2805 4.74675 21.2413C4.75577 21.2021 4.77275 21.1652 4.79663 21.1328ZM23.213 17.5242L23.4162 17.4695C23.5802 17.4227 23.6662 17.243 23.6037 17.0789L22.0412 13.2352C22.011 13.1638 21.9538 13.1073 21.882 13.078C21.8103 13.0487 21.7298 13.049 21.6583 13.0789L21.4396 13.1648L23.213 17.5242Z" fill="#D3D3D3"/>
</svg>
