<svg width="27" height="21" viewBox="0 0 27 21" fill="none" xmlns="http://www.w3.org/2000/svg">
<path d="M14.916 1.12427C15.2533 0.787078 15.7107 0.597656 16.1876 0.597656C16.6645 0.597656 17.1219 0.787078 17.4592 1.12427L25.553 9.21801C25.8902 9.5553 26.0796 10.0127 26.0796 10.4896C26.0796 10.9666 25.8902 11.424 25.553 11.7613L17.4592 19.855C17.12 20.1826 16.6657 20.3639 16.1941 20.3598C15.7225 20.3557 15.2714 20.1666 14.9379 19.8331C14.6044 19.4996 14.4153 19.0485 14.4112 18.5769C14.4071 18.1053 14.5884 17.651 14.916 17.3118L19.7848 12.2882H2.69803C2.221 12.2882 1.76352 12.0987 1.42622 11.7614C1.08891 11.4241 0.899414 10.9667 0.899414 10.4896C0.899414 10.0126 1.08891 9.55513 1.42622 9.21782C1.76352 8.88052 2.221 8.69102 2.69803 8.69102H19.7848L14.916 3.6675C14.5788 3.33021 14.3894 2.87281 14.3894 2.39588C14.3894 1.91896 14.5788 1.46155 14.916 1.12427Z" fill="#E9F0F6"/>
</svg>
