<svg width="18" height="18" viewBox="0 0 18 18" fill="none" xmlns="http://www.w3.org/2000/svg">
<path d="M8.884 0.991615C9.28723 0.722915 9.75985 0.577186 10.2444 0.572156C10.7289 0.567126 11.2045 0.703011 11.6132 0.963281L15.0748 3.16661H16.4998C16.7208 3.16661 16.9328 3.25441 17.0891 3.41069C17.2454 3.56697 17.3332 3.77893 17.3332 3.99995V11.4999C17.3332 11.721 17.2454 11.9329 17.0891 12.0892C16.9328 12.2455 16.7208 12.3333 16.4998 12.3333H15.2332C15.2599 12.7391 15.1741 13.1444 14.9851 13.5045C14.7962 13.8646 14.5114 14.1655 14.1623 14.3741L9.91817 16.9208C9.65739 17.0771 9.3588 17.1592 9.05474 17.158C8.75068 17.1568 8.45274 17.0725 8.19317 16.9141C7.90081 17.1724 7.52709 17.32 7.13711 17.3311C6.74713 17.3422 6.36561 17.2162 6.059 16.9749L1.77567 13.6091C1.47638 13.3741 1.26649 13.0437 1.18085 12.673C1.0952 12.3022 1.13895 11.9133 1.30484 11.5708C1.10584 11.4148 0.944958 11.2155 0.834365 10.9881C0.723771 10.7607 0.666368 10.5111 0.666504 10.2583V3.99995C0.666504 3.77893 0.754301 3.56697 0.910582 3.41069C1.06686 3.25441 1.27882 3.16661 1.49984 3.16661H5.62234L8.884 0.991615ZM2.47734 10.3716L3.054 9.86745C3.54682 9.43636 4.18909 9.21582 4.84278 9.25321C5.49647 9.29061 6.1094 9.58297 6.54984 10.0674L8.8015 12.5441C9.1546 12.9325 9.3765 13.4222 9.43573 13.9437C9.49496 14.4653 9.38852 14.9923 9.1315 15.4499L13.3048 12.9458C13.4142 12.8803 13.4972 12.7787 13.5396 12.6585C13.5821 12.5383 13.5813 12.4071 13.5373 12.2874L9.84817 7.12245C9.74714 6.98089 9.60436 6.87449 9.43983 6.81815C9.2753 6.76181 9.09726 6.75836 8.93067 6.80828L6.859 7.42911C6.42668 7.55879 5.96731 7.569 5.52965 7.45867C5.09199 7.34833 4.69236 7.12157 4.37317 6.80245L4.129 6.55911C3.90729 6.33785 3.75253 6.05851 3.68251 5.75321C3.61248 5.44791 3.63005 5.12905 3.73317 4.83328H2.33317V10.2583L2.47734 10.3716ZM10.719 2.36995C10.5826 2.28304 10.4238 2.23771 10.2621 2.23949C10.1004 2.24126 9.94264 2.29007 9.80817 2.37995L5.30817 5.37995L5.5515 5.62411C5.65801 5.73049 5.79134 5.80603 5.93734 5.84272C6.08333 5.8794 6.23653 5.87585 6.38067 5.83245L8.4515 5.21161C8.95119 5.06177 9.48524 5.072 9.97883 5.24086C10.4724 5.40972 10.9008 5.72876 11.204 6.15328L14.429 10.6666H15.6665V4.83328H15.0757C14.7586 4.83324 14.4481 4.74276 14.1807 4.57245L10.7182 2.36911L10.719 2.36995ZM4.15067 11.1208L2.804 12.2991L7.08734 15.6649L7.67484 14.6383C7.76213 14.4854 7.79875 14.3087 7.77944 14.1337C7.76012 13.9587 7.68587 13.7943 7.56734 13.6641L5.3165 11.1874C5.1697 11.026 4.96545 10.9286 4.74762 10.9162C4.52979 10.9037 4.31493 10.9772 4.15067 11.1208Z" fill="#ECF6FF"/>
</svg>
