<svg width="20" height="35" viewBox="0 0 20 35" fill="none" xmlns="http://www.w3.org/2000/svg">
<path d="M0.764799 0.770404C0.275099 1.26384 0 1.933 0 2.63072C0 3.32844 0.275099 3.9976 0.764799 4.49104L13.6949 17.5159L0.764799 30.5407C0.288979 31.037 0.0256901 31.7017 0.031641 32.3916C0.0375919 33.0815 0.312307 33.7415 0.796618 34.2293C1.28093 34.7172 1.93609 34.9939 2.62098 34.9999C3.30587 35.0059 3.9657 34.7407 4.45836 34.2614L19.2352 19.3762C19.7249 18.8828 20 18.2136 20 17.5159C20 16.8182 19.7249 16.149 19.2352 15.6556L4.45836 0.770404C3.96851 0.277115 3.30422 0 2.61158 0C1.91893 0 1.25465 0.277115 0.764799 0.770404Z" fill="#220335"/>
</svg>
