<svg width="25" height="25" viewBox="0 0 25 25" fill="none" xmlns="http://www.w3.org/2000/svg">
<path d="M6.97266 1.49805L7.07813 8.96875C7.07813 8.96875 8.45117 8.46484 9.42969 7.54688C10.3164 6.71484 12.2402 6.28516 13.5332 5.82031C16.3945 4.79297 16.9336 3.72656 16.9336 3.72656C16.9336 3.72656 16.9805 3.97266 14.4707 3.67383C13.7598 3.58984 12.041 3.16992 11.1445 2.91602C10.1035 2.62109 9.81641 2.48633 9.14062 2.24219C7.64258 1.69727 7.29102 1.49805 7.29102 1.49805H6.97266Z" fill="#E75625"/>
<path d="M0.652338 16.1836C0.652338 16.1836 1.38867 14.6953 7.23046 13.5898C12.6191 12.5703 16.6367 12.9746 19.1582 13.748C25.0723 15.5586 17.6777 16.5859 19.9434 18.0664C21.8496 19.3125 24.7695 18.9609 24.8047 20.6211C24.8301 21.752 21.9863 22.5332 18.1191 22.7715C9.35546 23.3125 3.80078 21.0176 1.90038 19.8398C0.277338 18.832 -0.298834 17.2773 0.652338 16.1836Z" fill="#A2C02B"/>
<path d="M8.45898 17.916L12.5781 12.9922C12.0332 13.0078 11.4648 13.0391 10.877 13.0879L7.88477 17.4336L8.45898 17.916Z" fill="#626E30"/>
<path d="M7.31641 18.8672C9.10917 18.8672 10.5625 18.3862 10.5625 17.793C10.5625 17.1997 9.10917 16.7188 7.31641 16.7188C5.52364 16.7188 4.07031 17.1997 4.07031 17.793C4.07031 18.3862 5.52364 18.8672 7.31641 18.8672Z" fill="#2F2F2F"/>
<path d="M7.33984 18.8594C7.36914 18.8594 7.39844 18.8594 7.42773 18.8574V1.66015C7.42471 1.56971 7.38665 1.48398 7.3216 1.42107C7.25655 1.35817 7.1696 1.323 7.0791 1.323C6.98861 1.323 6.90166 1.35817 6.8366 1.42107C6.77155 1.48398 6.7335 1.56971 6.73047 1.66015V18.8398C6.92773 18.8516 7.13086 18.8594 7.33984 18.8594Z" fill="#FBB817"/>
</svg>
