<svg width="25" height="25" viewBox="0 0 25 25" fill="none" xmlns="http://www.w3.org/2000/svg">
<path d="M3.4719 25C3.10354 25 2.75027 24.8537 2.4898 24.5932C2.22934 24.3327 2.08301 23.9795 2.08301 23.6111V2.08333C2.08301 1.71498 2.22934 1.36171 2.4898 1.10124C2.75027 0.840772 3.10354 0.694443 3.4719 0.694443C3.84025 0.694443 4.19352 0.840772 4.45399 1.10124C4.71446 1.36171 4.86079 1.71498 4.86079 2.08333V23.6111C4.86079 23.9795 4.71446 24.3327 4.45399 24.5932C4.19352 24.8537 3.84025 25 3.4719 25Z" fill="#8899A6"/>
<path d="M3.4719 0.694443C3.10354 0.694443 2.75027 0.840772 2.4898 1.10124C2.22934 1.36171 2.08301 1.71498 2.08301 2.08333V23.6111C2.08301 23.7032 2.11959 23.7915 2.18471 23.8566C2.24982 23.9218 2.33814 23.9583 2.43023 23.9583C2.52232 23.9583 2.61064 23.9218 2.67575 23.8566C2.74087 23.7915 2.77745 23.7032 2.77745 23.6111V3.06528C2.77745 2.52292 3.21704 2.08333 3.7594 2.08333H4.86079C4.86079 1.71498 4.71446 1.36171 4.45399 1.10124C4.19352 0.840772 3.84025 0.694443 3.4719 0.694443Z" fill="#AAB8C2"/>
<path d="M3.4719 25C3.10354 25 2.75027 24.8537 2.4898 24.5932C2.22934 24.3327 2.08301 23.9795 2.08301 23.6111V2.08333C2.08301 1.71498 2.22934 1.36171 2.4898 1.10124C2.75027 0.840772 3.10354 0.694443 3.4719 0.694443C3.84025 0.694443 4.19352 0.840772 4.45399 1.10124C4.71446 1.36171 4.86079 1.71498 4.86079 2.08333V23.6111C4.86079 23.9795 4.71446 24.3327 4.45399 24.5932C4.19352 24.8537 3.84025 25 3.4719 25Z" fill="#8899A6"/>
<path d="M3.4719 0.694443C3.10354 0.694443 2.75027 0.840772 2.4898 1.10124C2.22934 1.36171 2.08301 1.71498 2.08301 2.08333V23.6111C2.08301 23.7032 2.11959 23.7915 2.18471 23.8566C2.24982 23.9218 2.33814 23.9583 2.43023 23.9583C2.52232 23.9583 2.61064 23.9218 2.67575 23.8566C2.74087 23.7915 2.77745 23.7032 2.77745 23.6111V3.06528C2.77745 2.52292 3.21704 2.08333 3.7594 2.08333H4.86079C4.86079 1.71498 4.71446 1.36171 4.45399 1.10124C4.19352 0.840772 3.84025 0.694443 3.4719 0.694443Z" fill="#AAB8C2"/>
<path d="M22.4975 2.14028C21.342 1.64097 20.1107 1.39306 18.7503 1.37083L17.7955 1.63472L14.5837 2.08333L13.8892 1.99445C13.7246 2.02986 13.5587 2.0632 13.3955 2.09861C11.8892 2.42431 10.458 2.71945 9.0281 2.78056L8.33366 3.47222L4.16699 2.77778V15.9722H8.33366L9.0281 17.3611H9.08157C10.6399 17.2944 12.1871 16.975 13.6878 16.6514L13.8892 16.609L14.3378 16.1611L18.1142 15.6694L18.7503 15.9542C19.917 15.9764 20.9677 16.1868 21.9475 16.6097C22.0532 16.6553 22.1685 16.6739 22.2831 16.6638C22.3977 16.6538 22.508 16.6155 22.6041 16.5523C22.7002 16.4891 22.7791 16.403 22.8337 16.3017C22.8884 16.2005 22.917 16.0873 22.917 15.9722V2.77778C22.917 2.64217 22.8772 2.50954 22.8027 2.39625C22.7281 2.28296 22.6221 2.19398 22.4975 2.14028Z" fill="#31373D"/>
<path d="M9.0281 2.78055C8.86213 2.7875 8.69616 2.80486 8.53019 2.80486C7.28227 2.80486 6.17185 2.5875 5.13644 2.14027C5.03096 2.09424 4.91561 2.0754 4.80097 2.08547C4.68632 2.09554 4.57603 2.1342 4.48019 2.19791C4.38391 2.26093 4.30485 2.34695 4.25017 2.44819C4.19549 2.54943 4.1669 2.66271 4.16699 2.77777V6.94444C4.16699 6.94444 6.4531 7.63888 9.0281 7.63888V2.78055ZM13.8892 6.94444C13.8892 6.94444 11.285 7.63888 9.0281 7.63888V12.5C11.1114 12.5 13.8892 11.8056 13.8892 11.8056V6.94444ZM18.7503 6.25V1.37083C18.6837 1.36944 18.6212 1.3618 18.5538 1.3618C16.9795 1.3618 15.4142 1.66875 13.8892 1.99444V6.94444C13.8892 6.94444 15.3941 6.25 18.7503 6.25ZM4.58644 16.6097C5.6281 17.0597 6.73227 17.2993 7.93366 17.3611H9.0281V12.5C6.13435 12.5 4.16699 11.8056 4.16699 11.8056V15.9722C4.16703 16.1078 4.20676 16.2405 4.2813 16.3537C4.35584 16.467 4.46191 16.556 4.58644 16.6097ZM13.8892 11.8056V16.6083C15.4955 16.2618 17.0219 15.9451 18.5538 15.9451C18.6212 15.9451 18.6837 15.9528 18.7503 15.9542V11.1111C15.6253 11.1111 13.8892 11.8056 13.8892 11.8056ZM18.7503 11.1111C20.6087 11.1111 22.0975 11.5 22.917 11.7736V6.88055C22.1205 6.61597 20.6732 6.25 18.7503 6.25V11.1111Z" fill="#E1E8ED"/>
</svg>
