<svg width="16" height="16" viewBox="0 0 16 16" fill="none" xmlns="http://www.w3.org/2000/svg">
<g clip-path="url(#clip0_426_3327)">
<path d="M8.0447 4.88889C6.31137 4.88889 4.93359 6.26666 4.93359 8C4.93359 9.73333 6.31137 11.1111 8.0447 11.1111C9.77804 11.1111 11.1558 9.73333 11.1558 8C11.1558 6.26666 9.77804 4.88889 8.0447 4.88889ZM8.0447 10.2222C6.80026 10.2222 5.82248 9.24444 5.82248 8C5.82248 6.75555 6.80026 5.77777 8.0447 5.77777C9.28915 5.77777 10.2669 6.75555 10.2669 8C10.2669 9.24444 9.28915 10.2222 8.0447 10.2222Z" fill="#E9F0F6"/>
<path d="M14.5776 6.53333L13.3331 6.13333L13.0664 5.46666L13.6887 4.31111C13.822 4.04444 13.7776 3.68889 13.5553 3.46666L12.4887 2.4C12.2664 2.17777 11.9109 2.13333 11.6442 2.26666L10.4887 2.88889L9.82201 2.62222L9.42201 1.37777C9.33312 1.11111 9.06645 0.888885 8.75534 0.888885H7.24423C6.93312 0.888885 6.66645 1.11111 6.622 1.42222L6.22201 2.66666C5.95534 2.71111 5.73312 2.8 5.51089 2.93333L4.35534 2.31111C4.08867 2.17777 3.73312 2.22222 3.51089 2.44444L2.44423 3.51111C2.22201 3.73333 2.17756 4.08889 2.31089 4.35555L2.88867 5.46666C2.79978 5.68889 2.71089 5.95555 2.62201 6.17777L1.37756 6.57777C1.11089 6.66666 0.888672 6.93333 0.888672 7.24444V8.75555C0.888672 9.06666 1.11089 9.33333 1.42201 9.42222L2.66645 9.82222L2.93312 10.4889L2.31089 11.6444C2.17756 11.9111 2.22201 12.2667 2.44423 12.4889L3.51089 13.5556C3.73312 13.7778 4.08867 13.8222 4.35534 13.6889L5.51089 13.0667L6.17756 13.3333L6.57756 14.6222C6.66645 14.8889 6.93312 15.1111 7.24423 15.1111H8.75534C9.06645 15.1111 9.33312 14.8889 9.42201 14.6222L9.82201 13.3333L10.4887 13.0667L11.6442 13.6889C11.9109 13.8222 12.2664 13.7778 12.4887 13.5556L13.5553 12.4889C13.7776 12.2667 13.822 11.9111 13.6887 11.6444L13.0664 10.4889L13.3331 9.82222L14.622 9.42222C14.8887 9.33333 15.1109 9.06666 15.1109 8.75555V7.24444C15.1109 6.93333 14.8887 6.62222 14.5776 6.53333ZM14.222 8.62222L12.622 9.11111L12.5776 9.33333L12.1776 10.2667L12.0442 10.4889L12.8442 11.9556L11.9553 12.8444L10.4887 12.0444L10.2664 12.1778C9.95534 12.3556 9.64423 12.4889 9.33312 12.5778L9.11089 12.6222L8.622 14.2222H7.37756L6.88867 12.6222L6.66645 12.5778L5.73312 12.1778L5.51089 12.0444L4.04423 12.8444L3.15534 11.9556L3.95534 10.4889L3.82201 10.2667C3.64423 9.95555 3.51089 9.64444 3.42201 9.33333L3.37756 9.11111L1.77756 8.62222V7.37777L3.28867 6.93333L3.37756 6.71111C3.46645 6.35555 3.59978 6.04444 3.77756 5.73333L3.91089 5.51111L3.15534 4.04444L4.04423 3.15555L5.46645 3.95555L5.68867 3.82222C5.99978 3.64444 6.31089 3.51111 6.66645 3.42222L6.88867 3.33333L7.37756 1.77777H8.622L9.11089 3.33333L9.33312 3.42222C9.64423 3.51111 9.95534 3.64444 10.2664 3.82222L10.4887 3.95555L11.9553 3.15555L12.8442 4.04444L12.0442 5.51111L12.1776 5.73333C12.3553 6.04444 12.4887 6.35555 12.5776 6.66666L12.622 6.88889L14.222 7.37777V8.62222Z" fill="#E9F0F6"/>
</g>
<defs>
<clipPath id="clip0_426_3327">
<rect width="16" height="16" fill="white"/>
</clipPath>
</defs>
</svg>
