<svg width="25" height="25" viewBox="0 0 25 25" fill="none" xmlns="http://www.w3.org/2000/svg">
<path d="M22.2557 19.2754C21.7362 18.3027 20.7577 18.0664 19.6873 18.2871C19.6678 18.291 19.6444 18.2969 19.6209 18.3047C19.9276 17.7519 20.1639 17.2109 20.201 16.2129C20.2889 13.7559 19.2752 12.5488 18.2245 11.6562C16.0467 9.80664 9.7518 10.416 9.65415 10.4199C8.84555 10.4531 7.7186 10.9473 7.10727 11.4863C5.75961 12.6602 4.72055 14.3144 4.64438 16.1387C4.60336 16.7988 4.7186 17.582 5.03305 18.2148C4.18735 18.1094 3.29282 18.4004 2.73422 19.3965C2.2811 20.2031 2.41 21.1914 2.90219 22.1016C3.56821 23.3359 5.08188 24.5019 6.57993 24.1562C8.09946 23.8066 9.41782 22.3008 10.7596 21.5059C10.8553 21.4492 10.9686 21.4297 11.0799 21.4414C11.9159 21.5371 13.0916 21.5371 13.8299 21.457C13.9842 21.4414 14.1366 21.4922 14.2459 21.5996C14.3846 21.7363 14.5233 21.8652 14.5741 21.9121C15.4159 22.6875 16.3788 23.5254 17.4491 23.9531C19.2616 24.6758 21.0604 23.8672 22.035 22.1367C22.5467 21.2266 22.7713 20.2383 22.2557 19.2754Z" fill="#A65F3E"/>
<path d="M16.5742 20.541C16.4883 20.541 16.4004 20.5332 16.3125 20.5176C15.5215 20.3711 15.0508 19.584 14.9941 18.8809C14.9375 18.1699 15.2109 17.4961 15.4844 16.9316C15.5332 16.8301 16.041 15.8984 16.1777 15.2656C16.3828 14.3106 16.2109 13.4395 16.1504 13.0508C16.0898 12.6602 16.3867 12.7266 16.5156 13.0059C16.832 13.6914 16.8887 14.6504 16.7461 15.3828C16.6152 16.0527 16.0547 17.084 16.0059 17.1856C15.7656 17.6816 15.5254 18.2637 15.5703 18.8359C15.6074 19.3066 15.916 19.8555 16.416 19.9473C16.957 20.0469 17.3906 19.8516 17.8477 19.4336L18.3398 19.6211C17.9785 19.9531 17.332 20.541 16.5742 20.541ZM8.97461 15.9082C8.85742 15.2734 8.77539 14.4707 9.17383 13.9023L8.88281 13.3418C8.14453 14.0898 8.26562 15.2656 8.4043 16.0117C8.42188 16.1113 8.70898 17.5801 8.55078 18.1582C8.36914 18.8223 7.7793 19.3555 7.10742 19.4922C6.74414 18.9121 6.19922 18.4961 5.59766 18.2539C5.01172 18.0176 4.16992 18.082 3.69141 18.4316C4.20703 18.2891 4.80859 18.3223 5.3125 18.5625C6.01367 18.8945 6.44727 19.3496 6.84375 20.3164C6.97461 20.6348 7.07813 21.1426 7.38086 21.0547C7.55469 21.0059 7.69141 20.8301 7.625 20.5508C7.55469 20.2559 7.44922 20.0547 7.44922 20.0547C7.44922 20.0547 8.51953 19.8711 9.11133 18.3106C9.41406 17.5098 8.99414 16.0059 8.97461 15.9082Z" fill="#703B26"/>
<path d="M17.8594 21.0059C17.8027 21.1113 17.7227 21.1934 17.6074 21.1914C17.4297 21.1895 17.3164 20.9805 17.3145 20.8008C17.3066 19.3867 18.8555 18.0957 20.2812 18.2109C19.166 18.4492 18.3418 19.3594 17.9434 20.7988C17.9238 20.8672 17.8945 20.9395 17.8594 21.0059ZM10.5508 15.6895L10.1211 15.2227C10.8242 14.5527 11.7832 13.6309 11.9492 12.7988L12.5176 12.9121C12.332 13.8457 11.5371 14.9727 10.8242 15.6953C10.748 15.7734 10.623 15.7695 10.5508 15.6895Z" fill="#703B26"/>
<path d="M13.9434 12.7227C15.125 12.4648 15.9883 11.7402 16.043 10.8359L9.61328 10.4473C9.57227 11.1367 10.0098 11.7793 10.7266 12.2207C9.83398 12.373 9.22461 12.6016 8.96484 12.7109C8.82227 12.7715 8.72852 12.9102 8.72852 13.0664C8.73047 13.8066 9.52148 15.3184 10.0898 15.4102C10.6523 15.502 11.9199 13.8691 12.3867 13.166C12.3867 14.2598 12.5508 16.1934 12.8789 16.3457C13.5449 16.6523 15.6543 15.5117 15.7168 14.916C15.7656 14.4492 14.8301 13.5352 13.9434 12.7227Z" fill="#FFCA28"/>
<path d="M19.5687 3.80859C19.5199 2.97265 18.9633 2.22656 18.1762 1.94336C17.5375 1.71484 16.8988 1.79492 16.3851 2.08398C16.1508 2.21484 15.8695 2.23633 15.6273 2.11523C15.2523 1.92773 14.6019 1.67383 13.6762 1.55664C12.7543 1.43945 12.0414 1.54101 11.6137 1.64258C11.3363 1.70898 11.0512 1.61133 10.85 1.4082C10.6494 1.20809 10.4111 1.04967 10.149 0.942062C9.88685 0.834459 9.60601 0.779804 9.32265 0.781247C8.3207 0.781247 7.43202 1.51172 7.23281 2.49414C7.10781 3.10547 7.25429 3.69922 7.58242 4.16015C7.86757 4.56445 7.92421 5.09375 7.74062 5.55469C7.55507 6.01953 7.20156 7.04101 7.20937 7.60742C7.23867 10.0781 9.48671 11.3594 12.4594 11.7363C15.432 12.1133 18.0902 11.1855 18.5902 8.6289C18.7035 8.05078 18.6723 7.29492 18.5726 6.72851C18.4906 6.26172 18.6449 5.77929 18.975 5.4375C19.3695 5.02734 19.6078 4.45508 19.5687 3.80859Z" fill="#A65F3E"/>
<path d="M8.0765 3.06249C8.15658 2.43945 8.69759 1.99609 9.28939 2.07031C9.514 2.0996 10.1878 2.36327 9.95736 2.71484C9.91439 2.77929 9.84994 2.82421 9.78744 2.86913C9.36343 3.1766 8.98926 3.54747 8.67806 3.96874C8.62142 4.04687 8.53548 4.13476 8.4515 4.09765C8.15463 3.9707 8.04134 3.34765 8.0765 3.06249ZM18.6117 4.40038C18.6917 3.77734 18.2757 3.21093 17.6859 3.13671C17.4613 3.10742 16.7425 3.19531 16.8792 3.59374C16.9046 3.66796 16.9554 3.72656 17.0042 3.7871C17.3343 4.18554 17.6058 4.64062 17.8031 5.13085C17.8382 5.2207 17.8988 5.32812 17.9906 5.31249C18.3089 5.26171 18.5745 4.68749 18.6117 4.40038Z" fill="#874D36"/>
<path opacity="0.7" d="M12.1 6.47852C11.5238 7.14063 11.0902 7.51563 10.682 8.09961C9.98867 9.0918 10.4711 10.8164 12.4359 11.0723C13.8051 11.25 14.9848 10.6016 15.0082 9.29102C15.0238 8.46094 14.2914 7.35352 13.9125 6.63867C13.4398 5.75196 12.6996 5.78906 12.1 6.47852Z" fill="#F29657"/>
<path opacity="0.55" d="M11.1353 6.26186C11.2079 5.75139 10.9153 5.28755 10.4817 5.22585C10.0482 5.16414 9.63779 5.52793 9.56514 6.0384C9.49249 6.54886 9.78508 7.0127 10.2187 7.07441C10.6522 7.13611 11.0626 6.77232 11.1353 6.26186Z" fill="black"/>
<path opacity="0.55" d="M16.5229 6.94673C16.5956 6.43627 16.303 5.97243 15.8694 5.91072C15.4359 5.84902 15.0255 6.21281 14.9528 6.72327C14.8802 7.23374 15.1728 7.69758 15.6063 7.75928C16.0399 7.82099 16.4503 7.4572 16.5229 6.94673Z" fill="black"/>
<path opacity="0.55" d="M11.248 9.22266C11.6191 10.3184 13.4473 10.5566 14.1016 9.58789" stroke="black" stroke-width="2.446" stroke-miterlimit="10" stroke-linecap="round"/>
<path opacity="0.55" d="M13.238 9.3418C12.7673 9.44531 12.2888 9.36328 11.9743 8.96875C11.738 8.67383 11.4939 8.17969 11.8298 7.83008C12.3064 7.3418 13.4919 7.48828 13.9216 7.97266C14.1657 8.38477 13.6833 9.24805 13.238 9.3418Z" fill="black"/>
<path opacity="0.7" d="M3.16437 20.8105C3.17023 20.4531 3.43976 19.9336 3.7757 19.8086C4.57648 19.5059 5.44758 19.8711 5.93 20.9668C6.32844 21.873 6.3675 22.8242 6.19758 23.0801C5.94562 23.457 5.57844 23.3965 5.32453 23.3516C4.86164 23.2695 4.45929 22.9902 4.09601 22.6894C3.72687 22.3828 3.14875 21.7617 3.16437 20.8105ZM21.8284 20.7949C21.8167 20.4375 21.5394 19.9238 21.2034 19.8008C20.3987 19.5098 19.5316 19.8867 19.0667 20.9902C18.682 21.9023 18.7249 22.7402 18.7777 22.918C18.9417 23.4668 19.4554 23.4141 19.7073 23.3652C20.1683 23.2754 20.5667 22.9902 20.9261 22.6855C21.2913 22.3769 21.8577 21.748 21.8284 20.7949Z" fill="#F29657"/>
</svg>
