<svg width="20" height="35" viewBox="0 0 20 35" fill="none" xmlns="http://www.w3.org/2000/svg">
<path d="M19.2352 34.2296C19.7249 33.7362 20 33.067 20 32.3693C20 31.6716 19.7249 31.0024 19.2352 30.509L6.30514 17.4841L19.2352 4.45926C19.711 3.963 19.9743 3.29833 19.9684 2.60841C19.9624 1.9185 19.6877 1.25854 19.2034 0.770679C18.7191 0.282818 18.0639 0.00609589 17.379 9.91821e-05C16.6941 -0.00589752 16.0343 0.259323 15.5416 0.738632L0.764797 15.6238C0.275098 16.1172 0 16.7864 0 17.4841C0 18.1818 0.275098 18.851 0.764797 19.3444L15.5416 34.2296C16.0315 34.7229 16.6958 35 17.3884 35C18.0811 35 18.7454 34.7229 19.2352 34.2296Z" fill="#220335"/>
</svg>
