<svg width="18" height="16" viewBox="0 0 18 16" fill="none" xmlns="http://www.w3.org/2000/svg">
<g clip-path="url(#clip0_426_3337)">
<path d="M12.5719 10.7765L13.5719 9.77668C13.7281 9.62046 14 9.72982 14 9.95478V14.4979C14 15.3259 13.3281 15.9976 12.5 15.9976H1.5C0.671875 15.9976 0 15.3259 0 14.4979V3.49948C0 2.67148 0.671875 1.9997 1.5 1.9997H10.0469C10.2688 1.9997 10.3813 2.26841 10.225 2.42776L9.225 3.42761C9.17813 3.47448 9.11563 3.49948 9.04688 3.49948H1.5V14.4979H12.5V10.9515C12.5 10.8859 12.525 10.8234 12.5719 10.7765ZM17.4656 4.47121L9.25937 12.6763L6.43437 12.9887C5.61562 13.0793 4.91875 12.3888 5.00938 11.5639L5.32188 8.73934L13.5281 0.534288C14.2437 -0.181232 15.4 -0.181232 16.1125 0.534288L17.4625 1.88409C18.1781 2.59961 18.1781 3.75882 17.4656 4.47121ZM14.3781 5.4367L12.5625 3.62134L6.75625 9.42986L6.52812 11.4702L8.56875 11.2421L14.3781 5.4367ZM16.4031 2.94643L15.0531 1.59663C14.925 1.46853 14.7156 1.46853 14.5906 1.59663L13.625 2.56212L15.4406 4.37748L16.4062 3.41199C16.5312 3.28076 16.5312 3.07454 16.4031 2.94643Z" fill="#E9F0F6"/>
</g>
<defs>
<clipPath id="clip0_426_3337">
<rect width="18" height="16" fill="white"/>
</clipPath>
</defs>
</svg>
