<svg width="24" height="13" viewBox="0 0 24 13" fill="none" xmlns="http://www.w3.org/2000/svg">
<path d="M23.6875 11.0069L20.9653 6.40972L23.6597 2C23.7237 1.89492 23.7586 1.77472 23.7609 1.65172C23.7632 1.52871 23.7327 1.40731 23.6727 1.29994C23.6126 1.19256 23.5251 1.10306 23.4191 1.0406C23.3131 0.978139 23.1925 0.944955 23.0694 0.944443H1.38889C1.02053 0.944443 0.667263 1.09077 0.406796 1.35124C0.146329 1.61171 0 1.96498 0 2.33333L0 10.6667C0 11.035 0.146329 11.3883 0.406796 11.6488C0.667263 11.9092 1.02053 12.0556 1.38889 12.0556H23.0903C23.2129 12.0555 23.3332 12.0231 23.4392 11.9615C23.5452 11.8999 23.6329 11.8113 23.6936 11.7048C23.7543 11.5983 23.7856 11.4776 23.7846 11.355C23.7835 11.2325 23.75 11.1124 23.6875 11.0069ZM7.29861 8.70833H6.52083L4.25694 5.69444V8.71528H3.47222V4.41666H4.25694L6.52778 7.4375V4.41666H7.30556L7.29861 8.70833ZM11.6944 5.11111H9.24306V6.14583H11.4653V6.84028H9.24306V7.95833H11.6944V8.65278H8.45833V4.41666H11.6875L11.6944 5.11111ZM17.4514 8.69444H16.6667L15.5903 5.50694L14.5139 8.70833H13.7361L12.3472 4.41666H13.1944L14.1111 7.49305L15.1667 4.41666H16.0139L17.0278 7.49305L17.9514 4.41666H18.8056L17.4514 8.69444Z" fill="#177308"/>
</svg>
