<svg width="14" height="18" viewBox="0 0 14 18" fill="none" xmlns="http://www.w3.org/2000/svg">
<path id="Vector" d="M7 0L0 3.27273V8.18182C0 12.7227 2.98667 16.9691 7 18C11.0133 16.9691 14 12.7227 14 8.18182V3.27273L7 0ZM7 4.90909C8.08889 4.90909 9.17778 5.80909 9.17778 6.95455V8.18182C9.64445 8.18182 10.1111 8.67273 10.1111 9.24545V12.1091C10.1111 12.6 9.64444 13.0909 9.1 13.0909H4.82222C4.35556 13.0909 3.88889 12.6 3.88889 12.0273V9.16364C3.88889 8.67273 4.35556 8.18182 4.82222 8.18182V6.95455C4.82222 5.80909 5.91111 4.90909 7 4.90909ZM7 5.89091C6.37778 5.89091 5.83333 6.3 5.83333 6.95455V8.18182H8.16667V6.95455C8.16667 6.3 7.62222 5.89091 7 5.89091Z" fill="#ECF6FF"/>
</svg>
