<svg width="25" height="25" viewBox="0 0 25 25" fill="none" xmlns="http://www.w3.org/2000/svg">
<path d="M6.39412 11.6797C6.31209 11.5977 1.31795 10.498 1.31795 10.498C1.31795 10.498 1.02694 10.9648 1.11092 11.2402C1.1578 11.3945 2.24764 12.6621 3.36873 13.8281C4.2535 14.75 5.25936 15.6875 5.40584 16.2227C5.63045 17.0469 5.65389 18.3691 5.65389 18.3691L2.39803 20.3574C2.39803 20.3574 2.79647 22.3848 5.3785 22.3047C7.79061 22.2305 7.91561 19.6758 8.68123 19.6621C8.81014 19.6602 8.98787 19.6152 9.30623 19.957C10.0953 20.8047 11.5719 22.4414 12.066 22.9375C12.7262 23.5977 13.1949 24.2578 13.443 24.2305C13.691 24.2031 15.7828 22.332 16.3883 21.7539C16.9937 21.1758 17.5445 20.4883 17.5445 19.9102C17.5445 19.332 16.691 18.8926 16.691 18.8926L11.984 19.4434L6.39412 11.6797ZM20.2379 4.22266C20.3199 4.22266 22.4117 3.17773 22.4117 3.17773C22.4117 3.17773 23.4859 5.35156 22.109 6.58984C20.732 7.82813 20.4293 7.12695 19.7691 7.85547C19.2652 8.41211 19.5211 9.5625 19.5211 9.5625L23.6129 13.4961C23.6129 13.4961 23.8414 13.9121 23.6773 14.2148C23.5601 14.4297 22.1832 15.9707 21.1168 17.0781C20.6363 17.5762 19.9664 17.7441 19.6031 17.6563C18.6949 17.4355 18.5582 16.7207 18.3922 15.4551C18.2262 14.1895 17.1363 14.209 16.7398 14.2715C15.9039 14.4043 15.359 14.8926 15.359 14.8926C15.359 14.8926 10.4371 8.96094 10.4918 8.79492C10.5465 8.62891 10.7398 7.39062 10.1617 6.86914C9.58358 6.3457 8.42928 6.08008 7.98787 5.77734C7.54842 5.47461 7.48983 4.89844 7.5699 4.33984C7.64998 3.78125 11.2086 3.78711 11.2086 3.78711C11.2086 3.78711 17.3453 7.17188 17.3746 7.03516C17.4019 6.89063 20.2379 4.22266 20.2379 4.22266Z" fill="#B0B0AF"/>
<path d="M17.2112 4.88086C17.3596 4.33789 17.1897 3.00391 18.2268 2.12109C19.2639 1.23828 20.8772 1.34766 21.8479 2.27539C22.8186 3.20312 22.9749 4.94727 21.8264 6.0957C20.678 7.24414 20.1487 6.60352 19.5081 7.22266C18.8674 7.8418 18.9788 8.34961 19.3753 8.72461C19.7737 9.09961 23.7268 13.2305 23.6155 13.4941C23.5042 13.7578 20.8108 16.8066 20.3694 17.0273C19.928 17.248 19.1546 17.2266 19.0003 16.498C18.846 15.7695 19.1116 14.3125 18.0061 13.9355C16.9026 13.5605 16.4163 13.8691 15.3342 15.0176C14.2522 16.166 13.7659 17.4238 14.6487 18.0645C15.5315 18.7051 16.637 18.4395 17.0784 19.1914C17.5198 19.9434 16.8577 20.627 15.6878 21.709C14.5178 22.791 13.6116 23.6738 13.4573 23.5645C13.303 23.4531 9.94557 19.8984 9.61549 19.5234C9.28346 19.1484 8.64284 18.8164 8.02565 19.3906C7.40651 19.9648 7.29713 21.8418 4.69166 21.8418C2.08619 21.8418 1.77369 19.0156 2.70143 17.8457C3.62916 16.6758 5.6819 16.5645 5.72682 15.7695C5.74635 15.4043 4.6194 14.4199 3.60768 13.3633C2.41823 12.1191 1.31276 10.8008 1.26588 10.6465C1.17799 10.3594 3.73854 7.8418 4.22487 7.48828C4.71119 7.13477 5.26198 7.35547 5.5276 7.64258C5.79322 7.92969 5.85963 8.8125 6.08033 9.32031C6.30104 9.82813 7.33815 12.0371 9.83424 9.51953C12.3069 7.02344 9.96705 5.94141 9.17213 5.7207C8.37721 5.5 7.80494 5.42773 7.58229 4.61719C7.40651 3.97656 8.37721 3.22656 9.39283 2.25391C10.4085 1.28125 11.0042 0.773438 11.2698 0.773438C11.5354 0.773438 15.0901 4.59375 15.5549 5.03516C16.0198 5.47656 16.3049 5.58789 16.637 5.49805C16.9671 5.41211 17.1448 5.125 17.2112 4.88086Z" fill="url(#paint0_radial_757_173)"/>
<defs>
<radialGradient id="paint0_radial_757_173" cx="0" cy="0" r="1" gradientUnits="userSpaceOnUse" gradientTransform="translate(12.1432 -5.52735) scale(23.2861 23.2861)">
<stop offset="0.508" stop-color="#B7D118"/>
<stop offset="0.572" stop-color="#B2D019"/>
<stop offset="0.643" stop-color="#A5CD1D"/>
<stop offset="0.717" stop-color="#8FC922"/>
<stop offset="0.793" stop-color="#70C22A"/>
<stop offset="0.871" stop-color="#48BA34"/>
<stop offset="0.949" stop-color="#18B040"/>
<stop offset="0.981" stop-color="#02AB46"/>
</radialGradient>
</defs>
</svg>
