<svg width="25" height="25" viewBox="0 0 25 25" fill="none" xmlns="http://www.w3.org/2000/svg">
<path d="M14.0628 8.33333H12.5003V13.5417L16.9587 16.1875L17.7087 14.9271L14.0628 12.7604V8.33333ZM13.542 3.125C11.0556 3.125 8.67102 4.11272 6.91287 5.87087C5.15471 7.62903 4.16699 10.0136 4.16699 12.5H1.04199L5.16699 16.6979L9.37533 12.5H6.25033C6.25033 10.5661 7.01855 8.71147 8.38601 7.34401C9.75346 5.97656 11.6081 5.20833 13.542 5.20833C15.4759 5.20833 17.3305 5.97656 18.698 7.34401C20.0654 8.71147 20.8337 10.5661 20.8337 12.5C20.8337 14.4339 20.0654 16.2885 18.698 17.656C17.3305 19.0234 15.4759 19.7917 13.542 19.7917C11.5316 19.7917 9.70866 18.9688 8.39616 17.6458L6.91699 19.125C7.78311 20.0006 8.81509 20.6948 9.95261 21.167C11.0901 21.6392 12.3104 21.8799 13.542 21.875C16.0284 21.875 18.413 20.8873 20.1711 19.1291C21.9293 17.371 22.917 14.9864 22.917 12.5C22.917 10.0136 21.9293 7.62903 20.1711 5.87087C18.413 4.11272 16.0284 3.125 13.542 3.125Z" fill="#FF7A00"/>
</svg>
