<svg width="25" height="25" viewBox="0 0 25 25" fill="none" xmlns="http://www.w3.org/2000/svg">
<path d="M6.77051 6.25001C7.78092 6.25001 8.71842 6.77084 9.48926 7.68751C10.0622 7.07293 10.7393 6.62501 11.458 6.40626V4.16668C11.458 3.61414 11.6775 3.08424 12.0682 2.69354C12.4589 2.30284 12.9888 2.08334 13.5413 2.08334H15.6247V4.16668H13.5413V6.40626C14.2601 6.62501 14.9372 7.07293 15.5101 7.68751C16.2809 6.77084 17.2184 6.25001 18.2288 6.25001C20.833 6.25001 22.9163 9.75001 22.9163 14.0625C22.9163 18.375 20.833 21.875 18.2288 21.875C17.2184 21.875 16.2809 21.3542 15.5101 20.4375C14.6663 21.3542 13.6247 21.875 12.4997 21.875C11.3747 21.875 10.333 21.3542 9.48926 20.4375C8.71842 21.3542 7.78092 21.875 6.77051 21.875C4.16634 21.875 2.08301 18.375 2.08301 14.0625C2.08301 9.75001 4.16634 6.25001 6.77051 6.25001ZM9.37467 10.4167L8.07259 12.7604H10.6768L9.37467 10.4167ZM15.6247 10.4167L14.3226 12.7604H16.9268L15.6247 10.4167ZM8.33301 17.7083H10.4163L11.458 16.6667L12.4997 17.7083H14.583L15.6247 16.6667L16.6663 17.7083L18.2288 14.5833L14.4997 15.2292L13.5413 16.6667L12.4997 15.625H10.4163L9.37467 16.6667L8.33301 15.625L6.24967 14.5833L8.33301 17.7083Z" fill="#FF7A00"/>
</svg>
