<svg width="53" height="50" viewBox="0 0 53 50" fill="none" xmlns="http://www.w3.org/2000/svg">
<g id="mdi:account-circle-outline">
<path id="Vector" d="M25.8695 3.57141C22.9694 3.57141 20.0978 4.11028 17.4185 5.15725C14.7393 6.20423 12.3048 7.7388 10.2542 9.67335C6.11276 13.5804 3.78613 18.8794 3.78613 24.4047C3.78613 29.9301 6.11276 35.2291 10.2542 39.1361C12.3048 41.0707 14.7393 42.6053 17.4185 43.6522C20.0978 44.6992 22.9694 45.2381 25.8695 45.2381C31.7263 45.2381 37.3433 43.0431 41.4847 39.1361C45.6262 35.2291 47.9528 29.9301 47.9528 24.4047C47.9528 21.6689 47.3816 18.9598 46.2718 16.4322C45.162 13.9046 43.5354 11.6079 41.4847 9.67335C39.4341 7.7388 36.9997 6.20423 34.3204 5.15725C31.6411 4.11028 28.7695 3.57141 25.8695 3.57141ZM14.9824 37.4881C15.932 35.6131 21.7178 33.7797 25.8695 33.7797C30.0211 33.7797 35.807 35.6131 36.7566 37.4881C33.6635 39.8131 29.8243 41.0768 25.8695 41.0714C21.762 41.0714 17.9857 39.7381 14.9824 37.4881ZM39.9145 34.4672C36.7566 30.8422 29.0936 29.6131 25.8695 29.6131C22.6453 29.6131 14.9824 30.8422 11.8245 34.4672C9.47521 31.581 8.20206 28.0437 8.2028 24.4047C8.2028 15.2172 16.1307 7.73808 25.8695 7.73808C35.6082 7.73808 43.5361 15.2172 43.5361 24.4047C43.5361 28.1964 42.167 31.6964 39.9145 34.4672ZM25.8695 11.9047C21.5853 11.9047 18.1403 15.1547 18.1403 19.1964C18.1403 23.2381 21.5853 26.4881 25.8695 26.4881C30.1536 26.4881 33.5986 23.2381 33.5986 19.1964C33.5986 15.1547 30.1536 11.9047 25.8695 11.9047ZM25.8695 22.3214C24.9909 22.3214 24.1484 21.9922 23.5272 21.4061C22.906 20.8201 22.557 20.0252 22.557 19.1964C22.557 18.3676 22.906 17.5728 23.5272 16.9867C24.1484 16.4007 24.9909 16.0714 25.8695 16.0714C26.748 16.0714 27.5905 16.4007 28.2118 16.9867C28.833 17.5728 29.182 18.3676 29.182 19.1964C29.182 20.0252 28.833 20.8201 28.2118 21.4061C27.5905 21.9922 26.748 22.3214 25.8695 22.3214Z" fill="#ECF6FF"/>
</g>
</svg>
