<svg width="16" height="16" viewBox="0 0 16 16" fill="none" xmlns="http://www.w3.org/2000/svg">
<path d="M7.83685 0C8.82816 0 9.77888 0.421427 10.4798 1.17157C11.1808 1.92172 11.5746 2.93913 11.5746 4C11.5746 5.06087 11.1808 6.07828 10.4798 6.82843C9.77888 7.57857 8.82816 8 7.83685 8C6.84553 8 5.89482 7.57857 5.19385 6.82843C4.49289 6.07828 4.09909 5.06087 4.09909 4C4.09909 2.93913 4.49289 1.92172 5.19385 1.17157C5.89482 0.421427 6.84553 0 7.83685 0ZM7.83685 2C7.34119 2 6.86583 2.21071 6.51535 2.58579C6.16487 2.96086 5.96797 3.46957 5.96797 4C5.96797 4.53043 6.16487 5.03914 6.51535 5.41421C6.86583 5.78929 7.34119 6 7.83685 6C8.3325 6 8.80786 5.78929 9.15834 5.41421C9.50883 5.03914 9.70573 4.53043 9.70573 4C9.70573 3.46957 9.50883 2.96086 9.15834 2.58579C8.80786 2.21071 8.3325 2 7.83685 2ZM7.83685 9C10.3318 9 15.3124 10.33 15.3124 13V16H0.361328V13C0.361328 10.33 5.34189 9 7.83685 9ZM7.83685 10.9C5.06156 10.9 2.13676 12.36 2.13676 13V14.1H13.5369V13C13.5369 12.36 10.6121 10.9 7.83685 10.9Z" fill="#E9F0F6"/>
</svg>
